<svg xmlns="http://www.w3.org/2000/svg" xmlns:xlink="http://www.w3.org/1999/xlink" width="200" zoomAndPan="magnify" viewBox="0 0 150 155.999997" height="208" preserveAspectRatio="xMidYMid meet" version="1.0"><defs><clipPath id="0392f0d4da"><path d="M 0 0 L 149.394531 0 L 149.394531 155.230469 L 0 155.230469 Z M 0 0 " clip-rule="nonzero"/></clipPath><clipPath id="28ad2450a9"><path d="M 121.925781 155.394531 L 27.46875 155.394531 C 12.332031 155.394531 0 143.0625 0 127.925781 L 0 27.46875 C 0 12.332031 12.332031 0 27.46875 0 L 121.925781 0 C 137.0625 0 149.394531 12.332031 149.394531 27.46875 L 149.394531 127.925781 C 149.394531 143.0625 137.0625 155.394531 121.925781 155.394531 Z M 121.925781 155.394531 " clip-rule="nonzero"/></clipPath><linearGradient x1="0" gradientTransform="matrix(0.583575, 0, 0, 0.583575, 0.00000144231, -0.000227)" y1="133.141006" x2="255.999985" gradientUnits="userSpaceOnUse" y2="133.141006" id="22981b77d5"><stop stop-opacity="1" stop-color="rgb(7.499695%, 20.799255%, 58.799744%)" offset="0"/><stop stop-opacity="1" stop-color="rgb(7.499695%, 20.751953%, 58.64563%)" offset="0.0078125"/><stop stop-opacity="1" stop-color="rgb(7.502747%, 20.655823%, 58.338928%)" offset="0.015625"/><stop stop-opacity="1" stop-color="rgb(7.504272%, 20.561218%, 58.033752%)" offset="0.0234375"/><stop stop-opacity="1" stop-color="rgb(7.507324%, 20.465088%, 57.727051%)" offset="0.03125"/><stop stop-opacity="1" stop-color="rgb(7.50885%, 20.370483%, 57.420349%)" offset="0.0390625"/><stop stop-opacity="1" stop-color="rgb(7.511902%, 20.274353%, 57.113647%)" offset="0.046875"/><stop stop-opacity="1" stop-color="rgb(7.513428%, 20.179749%, 56.808472%)" offset="0.0546875"/><stop stop-opacity="1" stop-color="rgb(7.516479%, 20.083618%, 56.50177%)" offset="0.0625"/><stop stop-opacity="1" stop-color="rgb(7.519531%, 19.989014%, 56.195068%)" offset="0.0703125"/><stop stop-opacity="1" stop-color="rgb(7.521057%, 19.892883%, 55.889893%)" offset="0.078125"/><stop stop-opacity="1" stop-color="rgb(7.524109%, 19.798279%, 55.583191%)" offset="0.0859375"/><stop stop-opacity="1" stop-color="rgb(7.525635%, 19.702148%, 55.276489%)" offset="0.09375"/><stop stop-opacity="1" stop-color="rgb(7.528687%, 19.607544%, 54.971313%)" offset="0.101562"/><stop stop-opacity="1" stop-color="rgb(7.530212%, 19.511414%, 54.664612%)" offset="0.109375"/><stop stop-opacity="1" stop-color="rgb(7.533264%, 19.416809%, 54.35791%)" offset="0.117187"/><stop stop-opacity="1" stop-color="rgb(7.53479%, 19.322205%, 54.051208%)" offset="0.125"/><stop stop-opacity="1" stop-color="rgb(7.537842%, 19.226074%, 53.746033%)" offset="0.132812"/><stop stop-opacity="1" stop-color="rgb(7.539368%, 19.13147%, 53.439331%)" offset="0.140625"/><stop stop-opacity="1" stop-color="rgb(7.542419%, 19.035339%, 53.132629%)" offset="0.148438"/><stop stop-opacity="1" stop-color="rgb(7.543945%, 18.940735%, 52.827454%)" offset="0.15625"/><stop stop-opacity="1" stop-color="rgb(7.546997%, 18.844604%, 52.520752%)" offset="0.164062"/><stop stop-opacity="1" stop-color="rgb(7.548523%, 18.75%, 52.21405%)" offset="0.171875"/><stop stop-opacity="1" stop-color="rgb(7.551575%, 18.65387%, 51.907349%)" offset="0.179688"/><stop stop-opacity="1" stop-color="rgb(7.554626%, 18.559265%, 51.602173%)" offset="0.1875"/><stop stop-opacity="1" stop-color="rgb(7.556152%, 18.463135%, 51.295471%)" offset="0.195312"/><stop stop-opacity="1" stop-color="rgb(7.559204%, 18.36853%, 50.98877%)" offset="0.203125"/><stop stop-opacity="1" stop-color="rgb(7.56073%, 18.2724%, 50.683594%)" offset="0.210938"/><stop stop-opacity="1" stop-color="rgb(7.563782%, 18.177795%, 50.376892%)" offset="0.21875"/><stop stop-opacity="1" stop-color="rgb(7.565308%, 18.083191%, 50.07019%)" offset="0.226562"/><stop stop-opacity="1" stop-color="rgb(7.568359%, 17.987061%, 49.765015%)" offset="0.234375"/><stop stop-opacity="1" stop-color="rgb(7.569885%, 17.892456%, 49.458313%)" offset="0.242188"/><stop stop-opacity="1" stop-color="rgb(7.572937%, 17.796326%, 49.151611%)" offset="0.25"/><stop stop-opacity="1" stop-color="rgb(7.574463%, 17.701721%, 48.84491%)" offset="0.257812"/><stop stop-opacity="1" stop-color="rgb(7.577515%, 17.605591%, 48.539734%)" offset="0.265625"/><stop stop-opacity="1" stop-color="rgb(7.579041%, 17.510986%, 48.233032%)" offset="0.273438"/><stop stop-opacity="1" stop-color="rgb(7.582092%, 17.414856%, 47.926331%)" offset="0.28125"/><stop stop-opacity="1" stop-color="rgb(7.585144%, 17.320251%, 47.621155%)" offset="0.289062"/><stop stop-opacity="1" stop-color="rgb(7.58667%, 17.224121%, 47.314453%)" offset="0.296875"/><stop stop-opacity="1" stop-color="rgb(7.589722%, 17.129517%, 47.007751%)" offset="0.304688"/><stop stop-opacity="1" stop-color="rgb(7.591248%, 17.033386%, 46.702576%)" offset="0.3125"/><stop stop-opacity="1" stop-color="rgb(7.594299%, 16.938782%, 46.395874%)" offset="0.320312"/><stop stop-opacity="1" stop-color="rgb(7.595825%, 16.844177%, 46.089172%)" offset="0.328125"/><stop stop-opacity="1" stop-color="rgb(7.598877%, 16.748047%, 45.782471%)" offset="0.335938"/><stop stop-opacity="1" stop-color="rgb(7.600403%, 16.653442%, 45.477295%)" offset="0.34375"/><stop stop-opacity="1" stop-color="rgb(7.603455%, 16.557312%, 45.170593%)" offset="0.351562"/><stop stop-opacity="1" stop-color="rgb(7.60498%, 16.462708%, 44.863892%)" offset="0.359375"/><stop stop-opacity="1" stop-color="rgb(7.608032%, 16.366577%, 44.558716%)" offset="0.367187"/><stop stop-opacity="1" stop-color="rgb(7.609558%, 16.271973%, 44.252014%)" offset="0.375"/><stop stop-opacity="1" stop-color="rgb(7.61261%, 16.175842%, 43.945312%)" offset="0.382812"/><stop stop-opacity="1" stop-color="rgb(7.614136%, 16.081238%, 43.638611%)" offset="0.390625"/><stop stop-opacity="1" stop-color="rgb(7.617188%, 15.985107%, 43.333435%)" offset="0.398438"/><stop stop-opacity="1" stop-color="rgb(7.620239%, 15.890503%, 43.026733%)" offset="0.40625"/><stop stop-opacity="1" stop-color="rgb(7.621765%, 15.794373%, 42.720032%)" offset="0.414062"/><stop stop-opacity="1" stop-color="rgb(7.624817%, 15.699768%, 42.414856%)" offset="0.421875"/><stop stop-opacity="1" stop-color="rgb(7.626343%, 15.603638%, 42.108154%)" offset="0.429688"/><stop stop-opacity="1" stop-color="rgb(7.629395%, 15.509033%, 41.801453%)" offset="0.4375"/><stop stop-opacity="1" stop-color="rgb(7.63092%, 15.414429%, 41.496277%)" offset="0.445312"/><stop stop-opacity="1" stop-color="rgb(7.633972%, 15.318298%, 41.189575%)" offset="0.453125"/><stop stop-opacity="1" stop-color="rgb(7.635498%, 15.223694%, 40.882874%)" offset="0.460938"/><stop stop-opacity="1" stop-color="rgb(7.63855%, 15.127563%, 40.576172%)" offset="0.46875"/><stop stop-opacity="1" stop-color="rgb(7.640076%, 15.032959%, 40.270996%)" offset="0.476562"/><stop stop-opacity="1" stop-color="rgb(7.643127%, 14.936829%, 39.964294%)" offset="0.484375"/><stop stop-opacity="1" stop-color="rgb(7.644653%, 14.842224%, 39.657593%)" offset="0.492188"/><stop stop-opacity="1" stop-color="rgb(7.647705%, 14.746094%, 39.352417%)" offset="0.5"/><stop stop-opacity="1" stop-color="rgb(7.650757%, 14.651489%, 39.045715%)" offset="0.507812"/><stop stop-opacity="1" stop-color="rgb(7.652283%, 14.555359%, 38.739014%)" offset="0.515625"/><stop stop-opacity="1" stop-color="rgb(7.655334%, 14.460754%, 38.433838%)" offset="0.523438"/><stop stop-opacity="1" stop-color="rgb(7.65686%, 14.364624%, 38.127136%)" offset="0.53125"/><stop stop-opacity="1" stop-color="rgb(7.659912%, 14.27002%, 37.820435%)" offset="0.539063"/><stop stop-opacity="1" stop-color="rgb(7.661438%, 14.175415%, 37.513733%)" offset="0.546875"/><stop stop-opacity="1" stop-color="rgb(7.66449%, 14.079285%, 37.208557%)" offset="0.554688"/><stop stop-opacity="1" stop-color="rgb(7.666016%, 13.98468%, 36.901855%)" offset="0.5625"/><stop stop-opacity="1" stop-color="rgb(7.669067%, 13.88855%, 36.595154%)" offset="0.570312"/><stop stop-opacity="1" stop-color="rgb(7.670593%, 13.793945%, 36.289978%)" offset="0.578125"/><stop stop-opacity="1" stop-color="rgb(7.673645%, 13.697815%, 35.983276%)" offset="0.585937"/><stop stop-opacity="1" stop-color="rgb(7.675171%, 13.60321%, 35.676575%)" offset="0.59375"/><stop stop-opacity="1" stop-color="rgb(7.678223%, 13.50708%, 35.369873%)" offset="0.601563"/><stop stop-opacity="1" stop-color="rgb(7.681274%, 13.412476%, 35.064697%)" offset="0.609375"/><stop stop-opacity="1" stop-color="rgb(7.6828%, 13.316345%, 34.757996%)" offset="0.617188"/><stop stop-opacity="1" stop-color="rgb(7.685852%, 13.221741%, 34.451294%)" offset="0.625"/><stop stop-opacity="1" stop-color="rgb(7.687378%, 13.12561%, 34.146118%)" offset="0.632812"/><stop stop-opacity="1" stop-color="rgb(7.69043%, 13.031006%, 33.839417%)" offset="0.640625"/><stop stop-opacity="1" stop-color="rgb(7.691956%, 12.934875%, 33.532715%)" offset="0.648437"/><stop stop-opacity="1" stop-color="rgb(7.695007%, 12.840271%, 33.227539%)" offset="0.65625"/><stop stop-opacity="1" stop-color="rgb(7.696533%, 12.745667%, 32.920837%)" offset="0.664062"/><stop stop-opacity="1" stop-color="rgb(7.699585%, 12.649536%, 32.614136%)" offset="0.671875"/><stop stop-opacity="1" stop-color="rgb(7.701111%, 12.554932%, 32.307434%)" offset="0.679687"/><stop stop-opacity="1" stop-color="rgb(7.704163%, 12.458801%, 32.002258%)" offset="0.6875"/><stop stop-opacity="1" stop-color="rgb(7.705688%, 12.364197%, 31.695557%)" offset="0.695312"/><stop stop-opacity="1" stop-color="rgb(7.70874%, 12.268066%, 31.388855%)" offset="0.703125"/><stop stop-opacity="1" stop-color="rgb(7.710266%, 12.173462%, 31.083679%)" offset="0.710938"/><stop stop-opacity="1" stop-color="rgb(7.713318%, 12.077332%, 30.776978%)" offset="0.71875"/><stop stop-opacity="1" stop-color="rgb(7.71637%, 11.982727%, 30.470276%)" offset="0.726562"/><stop stop-opacity="1" stop-color="rgb(7.717896%, 11.886597%, 30.163574%)" offset="0.734375"/><stop stop-opacity="1" stop-color="rgb(7.720947%, 11.791992%, 29.858398%)" offset="0.742187"/><stop stop-opacity="1" stop-color="rgb(7.722473%, 11.695862%, 29.551697%)" offset="0.75"/><stop stop-opacity="1" stop-color="rgb(7.725525%, 11.601257%, 29.244995%)" offset="0.757812"/><stop stop-opacity="1" stop-color="rgb(7.727051%, 11.506653%, 28.939819%)" offset="0.765625"/><stop stop-opacity="1" stop-color="rgb(7.730103%, 11.410522%, 28.633118%)" offset="0.773438"/><stop stop-opacity="1" stop-color="rgb(7.731628%, 11.315918%, 28.326416%)" offset="0.78125"/><stop stop-opacity="1" stop-color="rgb(7.73468%, 11.219788%, 28.02124%)" offset="0.789062"/><stop stop-opacity="1" stop-color="rgb(7.736206%, 11.125183%, 27.714539%)" offset="0.796875"/><stop stop-opacity="1" stop-color="rgb(7.739258%, 11.029053%, 27.407837%)" offset="0.804688"/><stop stop-opacity="1" stop-color="rgb(7.740784%, 10.934448%, 27.101135%)" offset="0.8125"/><stop stop-opacity="1" stop-color="rgb(7.743835%, 10.838318%, 26.795959%)" offset="0.820312"/><stop stop-opacity="1" stop-color="rgb(7.746887%, 10.743713%, 26.489258%)" offset="0.828125"/><stop stop-opacity="1" stop-color="rgb(7.748413%, 10.647583%, 26.182556%)" offset="0.835937"/><stop stop-opacity="1" stop-color="rgb(7.751465%, 10.552979%, 25.87738%)" offset="0.84375"/><stop stop-opacity="1" stop-color="rgb(7.752991%, 10.456848%, 25.570679%)" offset="0.851563"/><stop stop-opacity="1" stop-color="rgb(7.756042%, 10.362244%, 25.263977%)" offset="0.859375"/><stop stop-opacity="1" stop-color="rgb(7.757568%, 10.266113%, 24.958801%)" offset="0.867188"/><stop stop-opacity="1" stop-color="rgb(7.76062%, 10.171509%, 24.6521%)" offset="0.875"/><stop stop-opacity="1" stop-color="rgb(7.762146%, 10.076904%, 24.345398%)" offset="0.882812"/><stop stop-opacity="1" stop-color="rgb(7.765198%, 9.980774%, 24.038696%)" offset="0.890625"/><stop stop-opacity="1" stop-color="rgb(7.766724%, 9.886169%, 23.733521%)" offset="0.898437"/><stop stop-opacity="1" stop-color="rgb(7.769775%, 9.790039%, 23.426819%)" offset="0.90625"/><stop stop-opacity="1" stop-color="rgb(7.771301%, 9.695435%, 23.120117%)" offset="0.914062"/><stop stop-opacity="1" stop-color="rgb(7.774353%, 9.599304%, 22.814941%)" offset="0.921875"/><stop stop-opacity="1" stop-color="rgb(7.775879%, 9.5047%, 22.50824%)" offset="0.929688"/><stop stop-opacity="1" stop-color="rgb(7.778931%, 9.408569%, 22.201538%)" offset="0.9375"/><stop stop-opacity="1" stop-color="rgb(7.781982%, 9.313965%, 21.894836%)" offset="0.945312"/><stop stop-opacity="1" stop-color="rgb(7.783508%, 9.217834%, 21.589661%)" offset="0.953125"/><stop stop-opacity="1" stop-color="rgb(7.78656%, 9.12323%, 21.282959%)" offset="0.960938"/><stop stop-opacity="1" stop-color="rgb(7.788086%, 9.0271%, 20.976257%)" offset="0.96875"/><stop stop-opacity="1" stop-color="rgb(7.791138%, 8.932495%, 20.671082%)" offset="0.976562"/><stop stop-opacity="1" stop-color="rgb(7.792664%, 8.837891%, 20.36438%)" offset="0.984375"/><stop stop-opacity="1" stop-color="rgb(7.795715%, 8.74176%, 20.057678%)" offset="0.992187"/><stop stop-opacity="1" stop-color="rgb(7.797241%, 8.647156%, 19.752502%)" offset="1"/></linearGradient></defs><g clip-path="url(#0392f0d4da)"><g clip-path="url(#28ad2450a9)"><path fill="url(#22981b77d5)" d="M 0 0 L 0 155.230469 L 149.394531 155.230469 L 149.394531 0 Z M 0 0 " fill-rule="nonzero"/></g></g><path fill="#f5f5f5" d="M 42.921875 47.605469 L 106.277344 47.605469 C 107.015625 47.605469 107.753906 47.652344 108.488281 47.746094 C 108.363281 46.871094 108.152344 46.019531 107.855469 45.1875 C 107.558594 44.359375 107.183594 43.566406 106.726562 42.8125 C 106.269531 42.058594 105.738281 41.355469 105.140625 40.707031 C 104.539062 40.0625 103.882812 39.480469 103.164062 38.96875 C 102.449219 38.453125 101.6875 38.015625 100.882812 37.65625 C 100.078125 37.296875 99.242188 37.019531 98.382812 36.832031 C 97.519531 36.640625 96.648438 36.535156 95.765625 36.523438 C 94.886719 36.507812 94.011719 36.582031 93.144531 36.746094 L 41.039062 45.640625 L 40.980469 45.640625 C 39.34375 45.953125 37.824219 46.554688 36.421875 47.449219 C 35.015625 48.34375 33.824219 49.464844 32.847656 50.8125 C 34.320312 49.765625 35.914062 48.96875 37.632812 48.421875 C 39.355469 47.875 41.117188 47.601562 42.921875 47.605469 Z M 42.921875 47.605469 " fill-opacity="1" fill-rule="nonzero"/><path fill="#f5f5f5" d="M 106.277344 52.355469 L 42.921875 52.355469 C 42.089844 52.355469 41.265625 52.4375 40.449219 52.601562 C 39.632812 52.765625 38.84375 53.003906 38.074219 53.324219 C 37.304688 53.640625 36.574219 54.03125 35.882812 54.496094 C 35.191406 54.957031 34.554688 55.484375 33.964844 56.070312 C 33.378906 56.660156 32.851562 57.296875 32.390625 57.988281 C 31.925781 58.679688 31.535156 59.410156 31.21875 60.179688 C 30.898438 60.949219 30.660156 61.738281 30.496094 62.554688 C 30.332031 63.371094 30.25 64.195312 30.25 65.027344 L 30.25 103.039062 C 30.25 103.871094 30.332031 104.695312 30.496094 105.511719 C 30.660156 106.324219 30.898438 107.117188 31.21875 107.886719 C 31.535156 108.652344 31.925781 109.382812 32.390625 110.074219 C 32.851562 110.765625 33.378906 111.40625 33.964844 111.996094 C 34.554688 112.582031 35.191406 113.109375 35.882812 113.570312 C 36.574219 114.03125 37.304688 114.421875 38.074219 114.742188 C 38.84375 115.058594 39.632812 115.300781 40.449219 115.464844 C 41.265625 115.628906 42.089844 115.710938 42.921875 115.710938 L 106.277344 115.710938 C 107.105469 115.710938 107.929688 115.628906 108.746094 115.464844 C 109.5625 115.300781 110.355469 115.058594 111.121094 114.742188 C 111.890625 114.421875 112.621094 114.03125 113.3125 113.570312 C 114.003906 113.109375 114.644531 112.582031 115.230469 111.996094 C 115.820312 111.40625 116.34375 110.765625 116.808594 110.074219 C 117.269531 109.382812 117.660156 108.652344 117.976562 107.886719 C 118.296875 107.117188 118.539062 106.324219 118.699219 105.511719 C 118.863281 104.695312 118.945312 103.871094 118.945312 103.039062 L 118.945312 65.027344 C 118.945312 64.195312 118.863281 63.371094 118.699219 62.554688 C 118.539062 61.738281 118.296875 60.949219 117.976562 60.179688 C 117.660156 59.410156 117.269531 58.679688 116.808594 57.988281 C 116.34375 57.296875 115.820312 56.660156 115.230469 56.070312 C 114.644531 55.484375 114.003906 54.957031 113.3125 54.496094 C 112.621094 54.03125 111.890625 53.640625 111.121094 53.324219 C 110.355469 53.003906 109.5625 52.765625 108.746094 52.601562 C 107.929688 52.4375 107.105469 52.355469 106.277344 52.355469 Z M 96.871094 90.367188 C 96.457031 90.367188 96.042969 90.328125 95.636719 90.246094 C 95.226562 90.164062 94.832031 90.046875 94.445312 89.886719 C 94.0625 89.726562 93.699219 89.53125 93.351562 89.300781 C 93.003906 89.070312 92.6875 88.808594 92.390625 88.511719 C 92.097656 88.21875 91.835938 87.898438 91.605469 87.550781 C 91.371094 87.207031 91.175781 86.839844 91.019531 86.457031 C 90.859375 86.074219 90.738281 85.675781 90.65625 85.269531 C 90.578125 84.859375 90.535156 84.449219 90.535156 84.03125 C 90.535156 83.617188 90.578125 83.203125 90.65625 82.796875 C 90.738281 82.390625 90.859375 81.992188 91.019531 81.609375 C 91.175781 81.222656 91.371094 80.859375 91.605469 80.511719 C 91.835938 80.167969 92.097656 79.847656 92.390625 79.554688 C 92.6875 79.257812 93.003906 78.996094 93.351562 78.765625 C 93.699219 78.535156 94.0625 78.339844 94.445312 78.179688 C 94.832031 78.019531 95.226562 77.898438 95.636719 77.820312 C 96.042969 77.738281 96.457031 77.699219 96.871094 77.699219 C 97.289062 77.699219 97.699219 77.738281 98.105469 77.820312 C 98.515625 77.898438 98.910156 78.019531 99.296875 78.179688 C 99.679688 78.339844 100.046875 78.535156 100.390625 78.765625 C 100.738281 78.996094 101.058594 79.257812 101.351562 79.554688 C 101.644531 79.847656 101.90625 80.167969 102.140625 80.511719 C 102.371094 80.859375 102.566406 81.222656 102.722656 81.609375 C 102.882812 81.992188 103.003906 82.390625 103.085938 82.796875 C 103.167969 83.203125 103.207031 83.617188 103.207031 84.03125 C 103.207031 84.449219 103.167969 84.859375 103.085938 85.269531 C 103.003906 85.675781 102.882812 86.074219 102.722656 86.457031 C 102.566406 86.839844 102.371094 87.207031 102.140625 87.550781 C 101.90625 87.898438 101.644531 88.21875 101.351562 88.511719 C 101.058594 88.808594 100.738281 89.070312 100.390625 89.300781 C 100.046875 89.53125 99.679688 89.726562 99.296875 89.886719 C 98.910156 90.046875 98.515625 90.164062 98.105469 90.246094 C 97.699219 90.328125 97.289062 90.367188 96.871094 90.367188 Z M 96.871094 90.367188 " fill-opacity="1" fill-rule="nonzero"/><path fill="#f5f5f5" d="M 30.347656 78.390625 L 30.347656 58.691406 C 30.347656 54.402344 32.726562 47.207031 40.972656 45.648438 C 47.96875 44.335938 54.898438 44.335938 54.898438 44.335938 C 54.898438 44.335938 59.453125 47.503906 55.691406 47.503906 C 51.929688 47.503906 52.027344 52.355469 55.691406 52.355469 C 59.355469 52.355469 55.691406 57.007812 55.691406 57.007812 L 40.941406 73.738281 Z M 30.347656 78.390625 " fill-opacity="1" fill-rule="nonzero"/></svg>