<svg id="svg" xmlns="http://www.w3.org/2000/svg" xmlns:xlink="http://www.w3.org/1999/xlink" width="400" height="400" viewBox="0, 0, 400,400"><g id="svgg"><path id="path0" d="M195.508 3.123 C 192.930 3.281,188.843 3.434,186.426 3.463 C 183.552 3.497,182.031 3.663,182.031 3.941 C 182.031 4.219,181.501 4.276,180.498 4.107 C 179.533 3.944,178.628 4.030,178.057 4.339 C 177.557 4.609,176.489 4.785,175.684 4.729 C 174.835 4.670,174.219 4.805,174.219 5.048 C 174.219 5.280,173.604 5.469,172.852 5.469 C 172.100 5.469,171.484 5.640,171.484 5.850 C 171.484 6.064,170.974 6.128,170.313 5.996 C 169.668 5.867,169.141 5.922,169.141 6.118 C 169.141 6.314,168.748 6.504,168.268 6.540 C 167.787 6.576,167.333 6.790,167.258 7.014 C 167.184 7.238,166.698 7.422,166.178 7.422 C 165.659 7.422,165.234 7.601,165.234 7.820 C 165.234 8.049,164.821 8.114,164.258 7.973 C 163.656 7.822,163.281 7.894,163.281 8.161 C 163.281 8.399,162.842 8.594,162.305 8.594 C 161.768 8.594,161.328 8.747,161.328 8.934 C 161.328 9.122,160.625 9.388,159.766 9.525 C 158.906 9.662,158.203 9.949,158.203 10.161 C 158.203 10.373,157.676 10.547,157.031 10.547 C 156.387 10.547,155.859 10.721,155.859 10.933 C 155.859 11.145,155.156 11.431,154.297 11.569 C 153.438 11.706,152.734 11.972,152.734 12.159 C 152.734 12.347,152.471 12.500,152.148 12.500 C 151.826 12.500,151.563 12.653,151.563 12.841 C 151.563 13.028,150.859 13.294,150.000 13.431 C 149.141 13.569,148.438 13.855,148.438 14.067 C 148.438 14.279,148.174 14.453,147.852 14.453 C 147.529 14.453,147.266 14.641,147.266 14.870 C 147.266 15.109,146.933 15.181,146.484 15.039 C 146.036 14.897,145.703 14.969,145.703 15.208 C 145.703 15.437,145.439 15.625,145.117 15.625 C 144.795 15.625,144.531 15.801,144.531 16.016 C 144.531 16.230,144.268 16.406,143.945 16.406 C 143.623 16.406,143.359 16.601,143.359 16.839 C 143.359 17.076,143.096 17.170,142.773 17.046 C 142.451 16.923,142.188 17.010,142.188 17.242 C 142.188 17.473,141.935 17.565,141.626 17.446 C 141.112 17.249,139.042 18.527,138.737 19.231 C 138.665 19.396,138.358 19.531,138.053 19.531 C 137.749 19.531,137.500 19.707,137.500 19.922 C 137.500 20.137,137.143 20.313,136.706 20.313 C 136.270 20.313,135.812 20.576,135.688 20.898 C 135.564 21.221,135.142 21.484,134.750 21.484 C 134.358 21.484,133.928 21.827,133.795 22.246 C 133.639 22.739,133.337 22.924,132.939 22.771 C 132.580 22.633,132.175 22.804,131.963 23.182 C 131.765 23.537,131.366 23.828,131.079 23.828 C 130.791 23.828,130.065 24.443,129.465 25.195 C 128.866 25.947,128.135 26.563,127.841 26.563 C 127.314 26.563,126.102 27.713,125.047 29.213 C 124.734 29.658,124.218 29.903,123.815 29.797 C 123.362 29.679,123.035 29.892,122.869 30.413 C 122.730 30.851,122.274 31.319,121.855 31.452 C 121.436 31.585,121.094 31.844,121.094 32.028 C 121.094 32.463,118.791 34.766,118.356 34.766 C 118.172 34.766,117.913 35.108,117.780 35.527 C 117.647 35.946,117.205 36.394,116.797 36.523 C 116.389 36.653,115.950 37.092,115.820 37.500 C 115.691 37.908,115.235 38.352,114.807 38.488 C 114.297 38.650,114.102 38.963,114.241 39.399 C 114.369 39.803,114.133 40.288,113.637 40.637 C 111.861 41.887,110.874 43.022,111.084 43.569 C 111.205 43.884,111.085 44.141,110.817 44.141 C 110.149 44.141,108.907 45.652,109.193 46.116 C 109.321 46.322,108.881 46.798,108.215 47.172 C 107.416 47.621,107.062 48.079,107.173 48.522 C 107.277 48.934,107.057 49.282,106.601 49.427 C 106.193 49.556,105.859 49.983,105.859 50.375 C 105.859 50.767,105.596 51.189,105.273 51.313 C 104.951 51.437,104.688 51.895,104.688 52.331 C 104.688 52.768,104.512 53.125,104.297 53.125 C 104.082 53.125,103.906 53.370,103.906 53.669 C 103.906 53.968,103.643 54.314,103.320 54.438 C 102.998 54.562,102.734 55.020,102.734 55.456 C 102.734 55.893,102.559 56.250,102.344 56.250 C 102.129 56.250,101.953 56.514,101.953 56.836 C 101.953 57.158,101.781 57.422,101.570 57.422 C 101.359 57.422,101.076 57.861,100.942 58.398 C 100.807 58.936,100.559 59.375,100.391 59.375 C 100.083 59.375,99.426 61.271,99.545 61.816 C 99.581 61.978,99.434 62.109,99.219 62.109 C 99.004 62.109,98.828 62.373,98.828 62.695 C 98.828 63.018,98.672 63.281,98.481 63.281 C 98.290 63.281,98.018 63.896,97.877 64.648 C 97.736 65.400,97.453 66.016,97.248 66.016 C 97.043 66.016,96.875 66.279,96.875 66.602 C 96.875 66.924,96.701 67.188,96.489 67.188 C 96.277 67.187,95.991 67.891,95.853 68.750 C 95.716 69.609,95.450 70.312,95.263 70.313 C 95.075 70.313,94.922 70.576,94.922 70.898 C 94.922 71.221,94.734 71.484,94.503 71.484 C 94.273 71.484,94.132 71.880,94.191 72.363 C 94.249 72.847,94.109 73.594,93.881 74.023 C 93.652 74.453,93.544 75.024,93.640 75.293 C 93.736 75.562,93.667 75.781,93.486 75.781 C 93.305 75.781,92.926 76.151,92.643 76.603 C 92.361 77.056,92.319 77.309,92.549 77.166 C 92.780 77.024,92.969 77.093,92.969 77.321 C 92.969 77.548,92.813 77.734,92.623 77.734 C 92.433 77.734,92.157 78.701,92.009 79.883 C 91.861 81.064,91.596 82.031,91.419 82.031 C 91.083 82.031,90.606 84.583,90.598 86.426 C 90.596 87.017,90.425 87.500,90.219 87.500 C 90.012 87.500,89.844 88.213,89.844 89.086 C 89.844 90.174,89.704 90.585,89.398 90.396 C 89.077 90.197,89.006 90.684,89.145 92.130 C 89.252 93.236,89.188 94.141,89.005 94.141 C 88.822 94.141,88.672 95.371,88.672 96.875 C 88.672 98.438,88.504 99.609,88.281 99.609 C 88.034 99.609,87.891 102.539,87.891 107.617 C 87.891 112.695,88.034 115.625,88.281 115.625 C 88.504 115.625,88.672 116.775,88.672 118.294 C 88.672 119.762,88.793 121.085,88.941 121.233 C 89.090 121.381,89.165 122.377,89.108 123.447 C 89.045 124.636,89.168 125.391,89.424 125.391 C 89.667 125.391,89.844 126.212,89.844 127.344 C 89.844 128.418,90.008 129.297,90.210 129.297 C 90.411 129.297,90.480 129.890,90.362 130.614 C 90.237 131.386,90.328 132.043,90.582 132.200 C 90.820 132.347,91.016 133.073,91.016 133.812 C 91.016 134.551,91.191 135.156,91.406 135.156 C 91.621 135.156,91.797 135.684,91.797 136.328 C 91.797 136.973,91.976 137.500,92.195 137.500 C 92.424 137.500,92.489 137.913,92.348 138.477 C 92.197 139.078,92.269 139.453,92.536 139.453 C 92.774 139.453,92.969 139.893,92.969 140.430 C 92.969 140.967,93.145 141.406,93.359 141.406 C 93.574 141.406,93.750 141.846,93.750 142.383 C 93.750 142.920,93.929 143.359,94.148 143.359 C 94.378 143.359,94.442 143.773,94.301 144.336 C 94.150 144.938,94.222 145.313,94.489 145.313 C 94.727 145.313,94.922 145.752,94.922 146.289 C 94.922 146.826,95.098 147.266,95.313 147.266 C 95.527 147.266,95.703 147.529,95.703 147.852 C 95.703 148.174,95.875 148.438,96.084 148.437 C 96.299 148.437,96.363 148.948,96.230 149.609 C 96.081 150.356,96.156 150.781,96.436 150.781 C 96.677 150.781,96.875 151.045,96.875 151.367 C 96.875 151.689,97.049 151.953,97.261 151.953 C 97.473 151.953,97.759 152.656,97.897 153.516 C 98.034 154.375,98.300 155.078,98.487 155.078 C 98.675 155.078,98.828 155.342,98.828 155.664 C 98.828 155.986,98.981 156.250,99.167 156.250 C 99.354 156.250,99.606 156.993,99.728 157.902 C 99.850 158.810,100.137 159.616,100.365 159.692 C 100.594 159.768,100.781 160.168,100.781 160.579 C 100.781 160.991,100.960 161.328,101.179 161.328 C 101.409 161.328,101.474 161.742,101.332 162.305 C 101.181 162.906,101.253 163.281,101.520 163.281 C 101.758 163.281,101.953 163.721,101.953 164.258 C 101.953 164.795,102.129 165.234,102.344 165.234 C 102.559 165.234,102.734 165.850,102.734 166.602 C 102.734 167.354,102.871 167.969,103.038 167.969 C 103.204 167.969,103.274 168.672,103.192 169.531 C 103.099 170.501,103.207 171.094,103.475 171.094 C 103.737 171.094,103.906 171.934,103.906 173.242 C 103.906 174.424,104.082 175.391,104.297 175.391 C 104.532 175.391,104.688 177.018,104.688 179.492 C 104.688 181.966,104.532 183.594,104.297 183.594 C 104.082 183.594,103.906 184.473,103.906 185.547 C 103.906 186.721,103.733 187.500,103.471 187.500 C 103.210 187.500,103.105 187.968,103.208 188.672 C 103.303 189.316,103.235 189.844,103.057 189.844 C 102.880 189.844,102.734 190.283,102.734 190.820 C 102.734 191.357,102.559 191.797,102.344 191.797 C 102.129 191.797,101.953 192.061,101.953 192.383 C 101.953 192.705,101.790 192.969,101.591 192.969 C 101.392 192.969,101.296 193.496,101.377 194.141 C 101.459 194.785,101.358 195.313,101.153 195.313 C 100.949 195.313,100.781 195.576,100.781 195.898 C 100.781 196.221,100.605 196.484,100.391 196.484 C 100.176 196.484,100.000 196.754,100.000 197.083 C 100.000 197.412,99.736 197.782,99.414 197.906 C 99.092 198.029,98.828 198.384,98.828 198.693 C 98.828 199.003,98.410 199.644,97.899 200.117 C 97.388 200.591,96.903 201.330,96.821 201.759 C 96.735 202.209,96.302 202.592,95.797 202.664 C 95.281 202.738,94.922 203.062,94.922 203.456 C 94.922 204.243,93.604 205.469,92.757 205.469 C 92.430 205.469,92.069 205.713,91.955 206.011 C 91.841 206.309,91.219 206.659,90.574 206.788 C 89.924 206.917,89.510 207.198,89.646 207.417 C 89.780 207.635,89.616 207.813,89.281 207.813 C 88.946 207.813,88.672 207.966,88.672 208.153 C 88.672 208.341,87.969 208.606,87.109 208.744 C 86.250 208.881,85.547 209.167,85.547 209.380 C 85.547 209.592,84.932 209.766,84.180 209.766 C 83.428 209.766,82.813 209.926,82.813 210.123 C 82.813 210.322,80.125 210.501,76.758 210.526 C 72.828 210.556,70.703 210.430,70.703 210.169 C 70.703 209.947,70.176 209.766,69.531 209.766 C 68.887 209.766,68.359 209.571,68.359 209.333 C 68.359 209.077,67.995 208.991,67.468 209.123 C 66.841 209.281,66.435 209.119,66.098 208.580 C 65.791 208.090,65.188 207.813,64.427 207.813 C 63.616 207.813,63.326 207.666,63.518 207.355 C 63.711 207.042,63.581 206.982,63.103 207.166 C 62.646 207.342,62.172 207.163,61.724 206.647 C 61.349 206.215,60.512 205.755,59.863 205.625 C 59.107 205.474,58.517 205.025,58.221 204.375 C 57.861 203.586,57.684 203.482,57.422 203.907 C 57.162 204.327,56.921 204.167,56.374 203.209 C 55.874 202.333,55.462 202.029,54.980 202.181 C 54.604 202.300,54.297 202.236,54.297 202.039 C 54.297 201.270,52.814 199.994,52.195 200.231 C 51.847 200.365,51.563 200.307,51.563 200.102 C 51.563 199.523,50.147 198.030,49.865 198.312 C 49.726 198.451,49.211 198.096,48.720 197.524 C 48.229 196.952,47.537 196.484,47.182 196.484 C 46.827 196.484,46.420 196.117,46.278 195.667 C 46.099 195.104,45.788 194.911,45.275 195.045 C 44.866 195.152,44.531 195.080,44.531 194.885 C 44.531 194.691,44.279 194.531,43.972 194.531 C 43.664 194.531,43.303 194.189,43.171 193.771 C 42.999 193.229,42.430 192.936,41.191 192.750 C 40.235 192.607,39.453 192.334,39.453 192.143 C 39.453 191.953,39.204 191.797,38.900 191.797 C 38.595 191.797,38.288 191.627,38.216 191.420 C 38.145 191.212,37.031 190.922,35.742 190.775 C 34.453 190.627,33.306 190.367,33.193 190.196 C 32.972 189.862,32.240 189.828,25.488 189.836 C 22.506 189.839,21.094 189.981,21.094 190.278 C 21.094 190.520,20.753 190.627,20.331 190.517 C 19.911 190.407,19.272 190.533,18.911 190.797 C 18.549 191.062,17.838 191.198,17.330 191.101 C 16.805 191.001,16.406 191.113,16.406 191.361 C 16.406 191.601,16.143 191.797,15.820 191.797 C 15.498 191.797,15.234 191.952,15.234 192.142 C 15.234 192.332,14.927 192.590,14.551 192.717 C 12.346 193.457,9.096 196.498,9.614 197.337 C 9.803 197.642,9.674 197.705,9.218 197.530 C 8.669 197.319,8.592 197.425,8.805 198.098 C 8.970 198.617,8.870 199.048,8.538 199.254 C 7.816 199.700,7.763 210.596,8.481 210.835 C 8.788 210.937,8.870 211.414,8.713 212.198 C 8.541 213.057,8.602 213.323,8.923 213.124 C 9.191 212.958,9.375 213.092,9.375 213.454 C 9.375 213.788,9.530 214.063,9.720 214.063 C 10.071 214.063,10.677 215.545,10.576 216.153 C 10.545 216.337,10.834 216.776,11.217 217.130 C 11.600 217.484,12.247 218.429,12.655 219.230 C 13.062 220.031,13.729 220.792,14.136 220.922 C 14.640 221.082,14.804 221.386,14.648 221.875 C 14.489 222.378,14.664 222.670,15.234 222.851 C 15.713 223.004,16.138 223.560,16.267 224.206 C 16.395 224.848,16.874 225.478,17.423 225.728 C 17.938 225.963,18.359 226.446,18.359 226.801 C 18.359 227.156,18.968 227.995,19.712 228.665 C 22.130 230.843,22.825 231.567,22.946 232.031 C 23.216 233.073,23.631 233.594,24.191 233.594 C 24.560 233.594,25.723 234.561,26.775 235.742 C 27.828 236.924,28.990 237.891,29.357 237.891 C 29.725 237.891,30.142 238.258,30.285 238.708 C 30.462 239.265,30.776 239.464,31.274 239.334 C 31.756 239.208,32.084 239.395,32.239 239.884 C 32.369 240.291,32.795 240.625,33.188 240.625 C 33.580 240.625,34.002 240.889,34.126 241.211 C 34.249 241.533,34.708 241.797,35.144 241.797 C 35.580 241.797,35.938 241.973,35.938 242.188 C 35.938 242.402,36.201 242.578,36.523 242.578 C 36.846 242.578,37.109 242.766,37.109 242.995 C 37.109 243.234,37.442 243.306,37.891 243.164 C 38.339 243.022,38.672 243.094,38.672 243.333 C 38.672 243.562,38.936 243.750,39.258 243.750 C 39.580 243.750,39.844 243.926,39.844 244.141 C 39.844 244.355,40.107 244.531,40.430 244.531 C 40.752 244.531,41.016 244.726,41.016 244.964 C 41.016 245.201,41.279 245.295,41.602 245.171 C 41.924 245.048,42.188 245.117,42.188 245.325 C 42.188 245.533,42.539 245.703,42.969 245.703 C 43.398 245.703,43.750 245.879,43.750 246.094 C 43.750 246.309,44.014 246.484,44.336 246.484 C 44.658 246.484,44.922 246.671,44.922 246.900 C 44.922 247.128,45.229 247.277,45.605 247.230 C 46.400 247.132,47.743 247.632,48.096 248.159 C 48.231 248.359,49.154 248.614,50.147 248.726 C 51.140 248.838,51.953 249.083,51.953 249.270 C 51.953 249.456,52.217 249.609,52.539 249.609 C 52.861 249.609,53.125 249.767,53.125 249.960 C 53.125 250.153,53.740 250.281,54.492 250.246 C 55.244 250.211,55.859 250.317,55.859 250.482 C 55.859 250.646,56.475 250.781,57.227 250.781 C 57.979 250.781,58.594 250.970,58.594 251.202 C 58.594 251.452,59.237 251.576,60.179 251.508 C 61.201 251.434,61.880 251.583,62.093 251.927 C 62.334 252.316,62.910 252.394,64.219 252.214 C 65.300 252.066,66.016 252.121,66.016 252.351 C 66.016 252.836,81.508 252.875,81.807 252.391 C 81.923 252.202,82.813 252.137,83.783 252.247 C 84.951 252.378,85.547 252.296,85.547 252.004 C 85.547 251.749,86.208 251.563,87.109 251.563 C 87.969 251.563,88.672 251.404,88.672 251.210 C 88.672 251.016,89.727 250.736,91.016 250.586 C 92.305 250.436,93.359 250.155,93.359 249.962 C 93.359 249.768,93.897 249.609,94.554 249.609 C 95.212 249.609,95.654 249.456,95.538 249.268 C 95.422 249.080,96.027 248.814,96.882 248.677 C 97.738 248.540,98.437 248.255,98.437 248.042 C 98.438 247.830,98.789 247.656,99.219 247.656 C 99.648 247.656,100.000 247.477,100.000 247.258 C 100.000 247.029,100.413 246.964,100.977 247.105 C 101.578 247.256,101.953 247.184,101.953 246.917 C 101.953 246.679,102.217 246.484,102.539 246.484 C 102.861 246.484,103.125 246.309,103.125 246.094 C 103.125 245.879,103.437 245.703,103.819 245.703 C 104.201 245.703,104.881 245.446,105.331 245.131 C 105.780 244.816,106.254 244.666,106.385 244.796 C 106.515 244.927,106.733 244.745,106.869 244.392 C 107.004 244.039,107.360 243.750,107.659 243.750 C 107.958 243.750,108.203 243.562,108.203 243.333 C 108.203 243.100,108.533 243.021,108.952 243.154 C 109.363 243.284,109.813 243.208,109.951 242.985 C 110.278 242.455,110.938 242.460,110.938 242.992 C 110.938 243.219,110.734 243.280,110.486 243.126 C 110.163 242.927,110.105 243.199,110.281 244.080 C 110.423 244.789,110.365 245.312,110.146 245.313 C 109.937 245.313,109.766 245.752,109.766 246.289 C 109.766 246.826,109.569 247.266,109.329 247.266 C 109.082 247.266,108.969 247.664,109.070 248.188 C 109.186 248.799,109.003 249.263,108.529 249.559 C 108.093 249.831,107.813 250.465,107.813 251.175 C 107.813 251.818,107.618 252.344,107.380 252.344 C 107.142 252.344,107.049 252.607,107.173 252.930 C 107.296 253.252,107.227 253.516,107.019 253.516 C 106.811 253.516,106.641 253.825,106.641 254.203 C 106.641 254.581,106.311 255.096,105.908 255.348 C 105.505 255.599,105.058 256.433,104.914 257.200 C 104.770 257.966,104.484 258.594,104.279 258.594 C 104.074 258.594,103.906 258.956,103.906 259.398 C 103.906 259.840,103.749 260.105,103.557 259.986 C 103.364 259.867,103.110 260.021,102.993 260.329 C 102.875 260.636,102.988 260.972,103.245 261.077 C 103.591 261.218,103.586 261.274,103.223 261.297 C 102.954 261.314,102.734 261.527,102.734 261.771 C 102.734 262.014,102.408 262.497,102.009 262.845 C 101.610 263.192,101.149 263.903,100.985 264.423 C 100.820 264.944,100.487 265.603,100.245 265.887 C 100.003 266.172,99.365 266.919,98.828 267.547 C 97.066 269.608,96.875 269.883,96.857 270.394 C 96.847 270.671,96.391 271.250,95.844 271.680 C 95.297 272.109,94.646 272.689,94.398 272.968 C 94.149 273.247,93.717 273.686,93.438 273.944 C 93.159 274.203,92.720 274.642,92.462 274.921 C 92.203 275.200,91.764 275.639,91.485 275.898 C 91.206 276.156,90.767 276.593,90.509 276.868 C 88.336 279.185,87.759 279.688,87.275 279.688 C 86.969 279.687,86.740 279.819,86.765 279.980 C 86.895 280.802,86.638 281.223,85.853 281.472 C 85.378 281.623,84.414 282.338,83.712 283.061 C 83.010 283.784,82.169 284.375,81.843 284.375 C 81.517 284.375,81.250 284.555,81.250 284.775 C 81.250 284.995,80.806 285.344,80.263 285.551 C 79.721 285.757,79.176 286.187,79.054 286.507 C 78.931 286.827,78.233 287.200,77.501 287.338 C 76.770 287.475,76.172 287.735,76.172 287.916 C 76.172 288.098,75.558 288.361,74.808 288.502 C 74.058 288.642,73.541 288.914,73.659 289.105 C 73.778 289.297,73.600 289.453,73.265 289.453 C 72.930 289.453,72.656 289.629,72.656 289.844 C 72.656 290.059,72.141 290.234,71.512 290.234 C 70.883 290.234,70.105 290.498,69.782 290.820 C 69.460 291.143,68.832 291.406,68.387 291.406 C 67.942 291.406,67.578 291.559,67.578 291.747 C 67.578 291.934,66.699 292.203,65.625 292.346 C 64.551 292.488,63.672 292.775,63.672 292.982 C 63.672 293.190,63.232 293.359,62.695 293.359 C 62.158 293.359,61.719 293.535,61.719 293.750 C 61.719 293.965,61.104 294.141,60.352 294.141 C 59.600 294.141,58.984 294.281,58.984 294.453 C 58.984 294.625,58.369 294.693,57.617 294.605 C 56.780 294.508,56.250 294.614,56.250 294.879 C 56.250 295.139,55.467 295.313,54.297 295.313 C 53.223 295.313,52.344 295.477,52.344 295.677 C 52.344 295.887,49.494 296.055,45.605 296.073 C 41.899 296.091,38.816 296.256,38.754 296.440 C 38.691 296.625,37.856 296.687,36.898 296.579 C 35.748 296.449,35.156 296.533,35.156 296.824 C 35.156 297.067,34.717 297.266,34.180 297.266 C 33.643 297.266,33.203 297.419,33.203 297.606 C 33.203 297.794,32.500 298.059,31.641 298.197 C 30.781 298.334,30.078 298.598,30.078 298.784 C 30.078 298.969,29.539 299.229,28.880 299.361 C 28.215 299.494,27.791 299.776,27.927 299.995 C 28.061 300.213,27.936 300.391,27.648 300.391 C 27.361 300.391,26.879 300.733,26.578 301.151 C 26.276 301.569,25.867 301.811,25.668 301.688 C 25.461 301.560,25.420 301.820,25.570 302.295 C 25.715 302.751,25.689 303.125,25.512 303.125 C 25.335 303.125,24.961 303.696,24.679 304.395 C 24.398 305.093,24.003 305.969,23.803 306.342 C 23.315 307.249,23.335 310.547,23.828 310.547 C 24.043 310.547,24.219 310.951,24.219 311.446 C 24.219 312.432,25.045 314.445,25.452 314.450 C 25.593 314.452,25.616 314.805,25.504 315.234 C 25.390 315.671,25.492 316.016,25.736 316.016 C 25.976 316.016,26.172 316.236,26.172 316.506 C 26.172 316.776,26.781 317.505,27.527 318.126 C 28.272 318.747,28.783 319.415,28.663 319.609 C 28.443 319.965,29.933 321.484,30.502 321.484 C 30.670 321.484,30.921 321.843,31.060 322.282 C 31.249 322.877,31.519 323.014,32.122 322.823 C 32.789 322.611,32.883 322.692,32.656 323.283 C 32.504 323.677,32.504 323.876,32.655 323.726 C 32.805 323.575,33.269 323.844,33.685 324.324 C 34.100 324.803,34.602 325.217,34.798 325.244 C 34.995 325.271,35.320 325.315,35.521 325.342 C 35.721 325.369,35.999 325.750,36.138 326.188 C 36.314 326.744,36.609 326.917,37.109 326.758 C 37.591 326.605,37.901 326.762,38.051 327.234 C 38.253 327.870,40.845 329.297,41.800 329.297 C 42.013 329.297,42.187 329.465,42.187 329.670 C 42.187 329.875,42.803 330.158,43.555 330.299 C 44.307 330.440,44.922 330.712,44.922 330.903 C 44.922 331.094,45.372 331.250,45.921 331.250 C 46.567 331.250,46.824 331.407,46.647 331.693 C 46.458 332.000,46.751 332.081,47.601 331.956 C 48.276 331.857,48.828 331.921,48.828 332.099 C 48.828 332.277,49.180 332.422,49.609 332.422 C 50.039 332.422,50.393 332.642,50.397 332.910 C 50.401 333.236,50.529 333.203,50.781 332.813 C 51.034 332.422,51.162 332.389,51.166 332.715 C 51.170 333.011,51.709 333.203,52.539 333.203 C 53.293 333.203,53.906 333.401,53.906 333.644 C 53.906 333.938,54.418 334.002,55.445 333.838 C 56.331 333.697,57.087 333.758,57.226 333.984 C 57.359 334.199,59.050 334.375,60.984 334.375 C 63.228 334.375,64.412 334.516,64.258 334.766 C 64.109 335.006,64.775 335.156,65.993 335.156 C 67.079 335.156,67.969 334.980,67.969 334.766 C 67.969 334.533,69.466 334.375,71.680 334.375 C 73.893 334.375,75.391 334.217,75.391 333.984 C 75.391 333.770,75.654 333.594,75.977 333.594 C 76.299 333.594,76.563 333.734,76.563 333.906 C 76.563 334.319,79.243 333.997,79.519 333.551 C 79.637 333.359,80.426 333.203,81.273 333.203 C 82.120 333.203,82.813 333.027,82.813 332.813 C 82.813 332.598,83.417 332.422,84.157 332.422 C 84.896 332.422,85.595 332.270,85.710 332.084 C 85.825 331.898,86.363 331.830,86.905 331.934 C 87.483 332.044,87.891 331.942,87.891 331.686 C 87.891 331.446,88.418 331.250,89.063 331.250 C 89.707 331.250,90.234 331.074,90.234 330.859 C 90.234 330.645,90.674 330.469,91.211 330.469 C 91.748 330.469,92.188 330.317,92.188 330.132 C 92.188 329.947,92.627 329.880,93.164 329.983 C 93.734 330.091,94.141 329.988,94.141 329.733 C 94.141 329.493,94.580 329.297,95.117 329.297 C 95.654 329.297,96.094 329.145,96.094 328.960 C 96.094 328.775,96.533 328.708,97.070 328.811 C 97.640 328.920,98.047 328.816,98.047 328.561 C 98.047 328.321,98.311 328.125,98.633 328.125 C 98.955 328.125,99.219 327.969,99.219 327.778 C 99.219 327.587,99.834 327.315,100.586 327.174 C 101.338 327.033,101.953 326.750,101.953 326.545 C 101.953 326.340,102.315 326.172,102.757 326.172 C 103.200 326.172,103.465 326.015,103.347 325.824 C 103.229 325.633,103.746 325.361,104.496 325.220 C 105.246 325.080,105.859 324.797,105.859 324.592 C 105.859 324.387,106.081 324.219,106.351 324.219 C 106.622 324.219,107.060 323.872,107.324 323.448 C 107.628 322.962,108.041 322.769,108.444 322.923 C 108.868 323.086,109.443 322.757,110.151 321.946 C 110.738 321.273,111.330 320.835,111.466 320.971 C 111.602 321.107,112.033 320.851,112.423 320.401 C 112.813 319.952,113.605 319.465,114.183 319.320 C 114.761 319.175,115.234 318.911,115.234 318.734 C 115.234 318.557,115.542 318.313,115.918 318.193 C 116.294 318.072,116.953 317.444,117.383 316.797 C 117.813 316.150,118.372 315.700,118.627 315.796 C 118.881 315.893,119.572 315.366,120.162 314.626 C 120.752 313.887,121.467 313.281,121.752 313.281 C 122.037 313.281,123.124 312.408,124.169 311.341 C 125.214 310.275,126.208 309.527,126.378 309.681 C 126.548 309.835,126.560 309.740,126.405 309.470 C 126.043 308.841,126.988 307.896,128.506 307.367 C 129.293 307.092,129.778 306.605,129.946 305.918 C 130.188 304.932,131.043 304.003,134.136 301.367 C 134.892 300.723,135.708 299.624,135.950 298.926 C 136.191 298.228,136.517 297.656,136.674 297.656 C 137.328 297.656,139.386 295.591,139.204 295.117 C 139.092 294.825,139.364 294.488,139.832 294.340 C 140.331 294.181,140.746 293.631,140.883 292.949 C 141.010 292.312,141.436 291.716,141.860 291.582 C 142.387 291.414,142.540 291.120,142.373 290.593 C 142.240 290.174,142.318 289.844,142.552 289.844 C 142.781 289.844,142.969 289.676,142.969 289.471 C 142.969 289.266,143.408 288.659,143.945 288.121 C 144.559 287.507,144.922 286.703,144.922 285.955 C 144.922 285.301,145.098 284.766,145.313 284.766 C 145.527 284.766,145.703 284.502,145.703 284.180 C 145.703 283.857,145.877 283.594,146.089 283.594 C 146.301 283.594,146.588 282.891,146.725 282.031 C 146.862 281.172,147.128 280.469,147.316 280.469 C 147.503 280.469,147.656 280.205,147.656 279.883 C 147.656 279.561,147.836 279.297,148.056 279.297 C 148.315 279.297,148.443 281.770,148.419 286.328 C 148.398 290.369,148.228 293.359,148.019 293.359 C 147.820 293.359,147.656 294.590,147.656 296.094 C 147.656 297.598,147.499 298.828,147.307 298.828 C 147.114 298.828,146.890 299.531,146.808 300.391 C 146.726 301.250,146.796 301.953,146.962 301.953 C 147.129 301.953,147.266 302.217,147.266 302.539 C 147.266 302.861,147.090 303.125,146.875 303.125 C 146.660 303.125,146.484 303.901,146.484 304.850 C 146.484 305.799,146.298 306.638,146.070 306.714 C 145.842 306.790,145.640 307.419,145.620 308.113 C 145.600 308.807,145.456 309.375,145.299 309.375 C 145.141 309.375,144.891 310.518,144.741 311.914 C 144.591 313.311,144.307 314.453,144.110 314.453 C 143.912 314.453,143.750 314.980,143.750 315.625 C 143.750 316.270,143.554 316.797,143.314 316.797 C 143.061 316.797,142.969 317.147,143.095 317.629 C 143.217 318.094,143.072 318.703,142.767 319.008 C 142.466 319.308,142.320 319.812,142.441 320.128 C 142.562 320.445,142.467 320.703,142.229 320.703 C 141.991 320.703,141.797 321.143,141.797 321.680 C 141.797 322.217,141.609 322.656,141.380 322.656 C 141.141 322.656,141.069 322.989,141.211 323.437 C 141.353 323.886,141.281 324.219,141.042 324.219 C 140.813 324.219,140.625 324.482,140.625 324.805 C 140.625 325.127,140.437 325.391,140.206 325.391 C 139.976 325.391,139.818 325.786,139.855 326.270 C 139.942 327.399,139.462 328.906,139.017 328.906 C 138.827 328.906,138.672 329.346,138.672 329.883 C 138.672 330.420,138.477 330.859,138.239 330.859 C 138.002 330.859,137.908 331.123,138.032 331.445 C 138.156 331.768,138.086 332.031,137.878 332.031 C 137.670 332.031,137.500 332.295,137.500 332.617 C 137.500 332.939,137.324 333.203,137.109 333.203 C 136.895 333.203,136.719 333.467,136.719 333.789 C 136.719 334.111,136.558 334.375,136.362 334.375 C 136.167 334.375,135.887 335.078,135.742 335.938 C 135.597 336.797,135.318 337.500,135.122 337.500 C 134.926 337.500,134.766 337.764,134.766 338.086 C 134.766 338.408,134.595 338.672,134.387 338.672 C 134.179 338.672,134.104 338.920,134.220 339.223 C 134.347 339.554,134.109 339.876,133.622 340.030 C 133.177 340.171,132.813 340.539,132.813 340.847 C 132.813 341.154,132.625 341.406,132.396 341.406 C 132.156 341.406,132.084 341.739,132.227 342.187 C 132.365 342.623,132.297 342.969,132.073 342.969 C 131.417 342.969,130.119 344.575,130.330 345.125 C 130.439 345.407,130.162 345.748,129.705 345.893 C 129.255 346.036,128.934 346.388,128.994 346.674 C 129.098 347.181,125.953 350.391,125.352 350.391 C 125.187 350.391,124.944 350.733,124.811 351.152 C 124.678 351.571,124.236 352.019,123.828 352.148 C 123.420 352.278,122.981 352.717,122.852 353.125 C 122.722 353.533,122.271 353.976,121.849 354.110 C 121.428 354.244,121.145 354.472,121.221 354.618 C 121.442 355.038,118.461 357.776,118.099 357.487 C 117.920 357.344,117.904 357.386,118.063 357.581 C 118.431 358.032,117.659 358.984,116.926 358.984 C 116.619 358.984,115.982 359.399,115.509 359.907 C 115.036 360.414,114.271 360.947,113.810 361.092 C 113.349 361.237,112.325 361.964,111.536 362.709 C 110.747 363.453,109.861 364.063,109.569 364.063 C 109.276 364.063,108.931 364.396,108.802 364.804 C 108.647 365.293,108.318 365.480,107.837 365.354 C 107.339 365.224,107.024 365.423,106.847 365.980 C 106.700 366.443,106.256 366.797,105.821 366.797 C 105.399 366.797,104.952 367.061,104.829 367.383 C 104.705 367.705,104.359 367.969,104.060 367.969 C 103.760 367.969,103.516 368.123,103.516 368.311 C 103.516 368.499,103.002 368.755,102.375 368.880 C 101.710 369.013,101.132 369.433,100.988 369.886 C 100.852 370.313,100.363 370.783,99.901 370.930 C 98.835 371.268,98.221 371.882,97.883 372.947 C 97.736 373.410,97.283 373.894,96.876 374.023 C 96.357 374.188,96.058 374.777,95.875 375.996 C 95.732 376.952,95.459 377.734,95.268 377.734 C 95.078 377.734,94.922 379.053,94.922 380.664 C 94.922 382.357,95.087 383.594,95.313 383.594 C 95.527 383.594,95.706 384.077,95.708 384.668 C 95.716 386.218,96.127 387.525,96.529 387.277 C 96.719 387.160,96.875 387.425,96.875 387.868 C 96.875 388.310,97.007 388.672,97.168 388.672 C 97.667 388.673,99.609 390.496,99.609 390.963 C 99.609 391.207,99.861 391.406,100.169 391.406 C 100.477 391.406,100.840 391.758,100.977 392.187 C 101.113 392.617,101.564 392.969,101.979 392.969 C 102.395 392.969,102.734 393.125,102.734 393.317 C 102.734 393.509,103.174 393.776,103.711 393.910 C 104.248 394.045,104.688 394.328,104.688 394.539 C 104.688 394.749,105.127 394.922,105.664 394.922 C 106.201 394.922,106.641 395.117,106.641 395.355 C 106.641 395.618,107.012 395.695,107.585 395.551 C 108.104 395.420,108.588 395.488,108.659 395.700 C 108.731 395.913,109.316 396.125,109.961 396.171 C 110.605 396.218,111.237 396.405,111.365 396.588 C 111.710 397.081,126.327 396.995,126.493 396.499 C 126.567 396.276,127.404 396.094,128.353 396.094 C 129.302 396.094,130.078 395.922,130.078 395.713 C 130.078 395.498,130.589 395.434,131.250 395.566 C 131.997 395.716,132.422 395.641,132.422 395.361 C 132.422 395.120,132.847 394.922,133.366 394.922 C 133.885 394.922,134.368 394.754,134.440 394.548 C 134.512 394.343,135.249 394.130,136.079 394.075 C 136.909 394.020,137.675 393.749,137.781 393.472 C 137.887 393.195,138.395 392.969,138.909 392.969 C 139.423 392.969,139.844 392.807,139.844 392.609 C 139.844 392.411,140.371 392.134,141.016 391.992 C 141.660 391.851,142.188 391.573,142.188 391.375 C 142.188 391.177,142.539 391.016,142.969 391.016 C 143.398 391.016,143.750 390.848,143.750 390.643 C 143.750 390.438,144.353 390.157,145.090 390.018 C 145.827 389.880,146.525 389.521,146.640 389.219 C 146.756 388.918,147.218 388.672,147.667 388.672 C 148.116 388.672,148.375 388.496,148.242 388.281 C 148.109 388.066,148.351 387.891,148.779 387.891 C 149.219 387.891,149.667 387.544,149.810 387.093 C 149.991 386.523,150.277 386.363,150.813 386.533 C 151.225 386.664,151.563 386.611,151.563 386.414 C 151.563 385.845,152.983 384.363,153.261 384.642 C 153.400 384.780,154.064 384.250,154.736 383.463 C 155.409 382.675,156.187 382.031,156.465 382.031 C 157.299 382.031,164.844 374.286,164.844 373.429 C 164.844 373.004,165.010 372.656,165.214 372.656 C 165.819 372.656,167.578 370.856,167.578 370.236 C 167.578 369.921,168.018 369.428,168.555 369.141 C 169.092 368.853,169.531 368.286,169.531 367.880 C 169.531 367.474,169.709 367.251,169.926 367.386 C 170.145 367.521,170.426 367.107,170.556 366.457 C 170.685 365.812,171.035 365.191,171.333 365.076 C 171.631 364.962,171.875 364.523,171.875 364.101 C 171.875 363.666,172.228 363.222,172.692 363.075 C 173.249 362.898,173.448 362.583,173.318 362.085 C 173.192 361.604,173.379 361.275,173.868 361.120 C 174.276 360.991,174.609 360.545,174.609 360.130 C 174.609 359.715,174.804 359.375,175.042 359.375 C 175.280 359.375,175.376 359.120,175.257 358.809 C 175.126 358.467,175.341 358.148,175.801 358.001 C 176.220 357.869,176.563 357.439,176.563 357.047 C 176.563 356.654,176.865 356.217,177.235 356.075 C 177.811 355.854,177.825 355.765,177.333 355.454 C 176.944 355.208,176.916 355.088,177.246 355.084 C 177.515 355.081,177.734 354.727,177.734 354.297 C 177.734 353.867,177.929 353.516,178.167 353.516 C 178.405 353.516,178.498 353.252,178.374 352.930 C 178.239 352.576,178.372 352.344,178.711 352.344 C 179.049 352.344,179.183 352.111,179.048 351.758 C 178.924 351.436,179.017 351.172,179.255 351.172 C 179.493 351.172,179.688 350.820,179.688 350.391 C 179.688 349.961,179.882 349.609,180.120 349.609 C 180.358 349.609,180.451 349.346,180.327 349.023 C 180.204 348.701,180.273 348.438,180.481 348.438 C 180.689 348.438,180.859 348.174,180.859 347.852 C 180.859 347.529,181.035 347.266,181.250 347.266 C 181.465 347.266,181.641 347.017,181.641 346.712 C 181.641 346.408,181.828 346.096,182.056 346.020 C 182.285 345.944,182.572 345.138,182.694 344.230 C 182.816 343.321,183.068 342.578,183.255 342.578 C 183.441 342.578,183.594 342.314,183.594 341.992 C 183.594 341.670,183.747 341.406,183.934 341.406 C 184.122 341.406,184.385 340.718,184.520 339.877 C 184.654 339.035,184.896 338.288,185.058 338.216 C 185.687 337.937,186.774 335.547,186.272 335.547 C 185.890 335.547,185.885 335.443,186.250 335.078 C 186.508 334.820,186.719 334.293,186.719 333.906 C 186.719 333.520,186.873 333.203,187.062 333.203 C 187.557 333.203,188.404 330.984,188.099 330.489 C 187.957 330.260,188.108 329.805,188.435 329.478 C 188.762 329.151,188.930 328.625,188.809 328.309 C 188.688 327.993,188.783 327.734,189.021 327.734 C 189.259 327.734,189.453 327.393,189.453 326.976 C 189.453 326.559,189.630 326.109,189.845 325.976 C 190.061 325.842,190.130 325.305,189.998 324.781 C 189.852 324.200,189.928 323.828,190.192 323.828 C 190.430 323.828,190.625 323.389,190.625 322.852 C 190.625 322.314,190.788 321.875,190.988 321.875 C 191.187 321.875,191.471 320.908,191.618 319.727 C 191.766 318.545,192.042 317.578,192.233 317.578 C 192.423 317.578,192.578 317.139,192.578 316.602 C 192.578 316.064,192.774 315.625,193.013 315.625 C 193.273 315.625,193.380 315.158,193.277 314.463 C 193.184 313.823,193.274 313.245,193.477 313.177 C 193.681 313.109,193.848 312.574,193.848 311.988 C 193.848 311.403,194.001 310.828,194.189 310.712 C 194.377 310.596,194.531 310.180,194.531 309.787 C 194.531 309.395,194.789 308.577,195.104 307.970 C 195.543 307.123,195.567 306.798,195.205 306.574 C 194.838 306.347,194.841 306.175,195.218 305.798 C 195.485 305.531,195.703 304.732,195.703 304.023 C 195.703 303.314,195.879 302.734,196.094 302.734 C 196.309 302.734,196.484 301.943,196.484 300.977 C 196.484 299.930,196.663 299.219,196.926 299.219 C 197.218 299.219,197.300 298.624,197.169 297.461 C 197.060 296.494,197.125 295.703,197.314 295.703 C 197.502 295.703,197.656 294.648,197.656 293.359 C 197.656 292.057,197.830 291.016,198.047 291.016 C 198.262 291.016,198.438 290.147,198.438 289.086 C 198.438 288.024,198.630 287.037,198.865 286.891 C 199.100 286.746,199.227 285.945,199.147 285.111 C 199.068 284.276,199.119 283.594,199.261 283.594 C 199.402 283.594,199.645 283.198,199.801 282.715 C 200.040 281.971,200.111 281.941,200.265 282.520 C 200.366 282.896,200.572 283.203,200.723 283.203 C 200.874 283.203,200.932 283.886,200.853 284.720 C 200.773 285.555,200.900 286.355,201.135 286.501 C 201.370 286.646,201.563 287.633,201.563 288.695 C 201.563 289.756,201.738 290.625,201.953 290.625 C 202.170 290.625,202.344 291.667,202.344 292.969 C 202.344 294.258,202.498 295.313,202.686 295.313 C 202.875 295.312,202.940 296.104,202.831 297.070 C 202.700 298.234,202.782 298.828,203.074 298.828 C 203.337 298.828,203.516 299.540,203.516 300.586 C 203.516 301.553,203.691 302.344,203.906 302.344 C 204.121 302.344,204.297 302.924,204.297 303.633 C 204.297 304.342,204.515 305.140,204.782 305.407 C 205.159 305.784,205.162 305.957,204.795 306.184 C 204.433 306.407,204.457 306.733,204.896 307.579 C 205.211 308.186,205.469 309.004,205.469 309.397 C 205.469 309.789,205.623 310.205,205.811 310.321 C 205.999 310.438,206.152 311.012,206.152 311.598 C 206.152 312.183,206.319 312.718,206.523 312.786 C 206.726 312.854,206.816 313.433,206.723 314.072 C 206.620 314.768,206.727 315.234,206.987 315.234 C 207.226 315.234,207.422 315.674,207.422 316.211 C 207.422 316.748,207.577 317.188,207.767 317.188 C 207.958 317.187,208.234 318.154,208.382 319.336 C 208.529 320.518,208.813 321.484,209.012 321.484 C 209.212 321.484,209.375 321.924,209.375 322.461 C 209.375 322.998,209.570 323.438,209.808 323.438 C 210.072 323.438,210.148 323.810,210.002 324.390 C 209.870 324.914,209.939 325.452,210.155 325.585 C 210.370 325.718,210.547 326.169,210.547 326.586 C 210.547 327.003,210.741 327.344,210.979 327.344 C 211.217 327.344,211.312 327.602,211.191 327.918 C 211.070 328.234,211.238 328.760,211.565 329.087 C 211.892 329.414,212.043 329.869,211.901 330.099 C 211.596 330.593,212.443 332.813,212.938 332.813 C 213.127 332.813,213.281 333.129,213.281 333.516 C 213.281 333.902,213.492 334.430,213.750 334.688 C 214.115 335.052,214.110 335.156,213.728 335.156 C 213.226 335.156,214.313 337.546,214.942 337.826 C 215.104 337.897,215.346 338.645,215.480 339.486 C 215.615 340.327,215.878 341.016,216.066 341.016 C 216.253 341.016,216.406 341.279,216.406 341.602 C 216.406 341.924,216.559 342.188,216.745 342.188 C 216.932 342.188,217.184 342.931,217.306 343.839 C 217.428 344.748,217.715 345.553,217.944 345.630 C 218.172 345.706,218.359 346.017,218.359 346.322 C 218.359 346.626,218.535 346.875,218.750 346.875 C 218.965 346.875,219.141 347.139,219.141 347.461 C 219.141 347.783,219.311 348.047,219.519 348.047 C 219.727 348.047,219.796 348.311,219.673 348.633 C 219.549 348.955,219.642 349.219,219.880 349.219 C 220.118 349.219,220.313 349.570,220.313 350.000 C 220.313 350.430,220.507 350.781,220.745 350.781 C 220.983 350.781,221.076 351.045,220.952 351.367 C 220.817 351.721,220.951 351.953,221.289 351.953 C 221.628 351.953,221.761 352.186,221.626 352.539 C 221.502 352.861,221.595 353.125,221.833 353.125 C 222.071 353.125,222.266 353.477,222.266 353.906 C 222.266 354.336,222.485 354.690,222.754 354.693 C 223.084 354.698,223.056 354.817,222.667 355.063 C 222.175 355.375,222.189 355.464,222.765 355.685 C 223.135 355.827,223.438 356.264,223.438 356.656 C 223.438 357.048,223.780 357.478,224.199 357.611 C 224.659 357.757,224.874 358.076,224.743 358.418 C 224.624 358.730,224.720 358.984,224.958 358.984 C 225.196 358.984,225.391 359.324,225.391 359.739 C 225.391 360.155,225.724 360.600,226.132 360.729 C 226.621 360.885,226.808 361.213,226.682 361.695 C 226.552 362.193,226.751 362.507,227.308 362.684 C 227.772 362.831,228.125 363.275,228.125 363.710 C 228.125 364.132,228.369 364.571,228.667 364.686 C 228.965 364.800,229.315 365.421,229.444 366.066 C 229.574 366.716,229.855 367.130,230.074 366.995 C 230.291 366.861,230.469 367.083,230.469 367.489 C 230.469 367.895,230.908 368.463,231.445 368.750 C 231.982 369.037,232.422 369.530,232.422 369.845 C 232.422 370.465,234.181 372.266,234.786 372.266 C 234.990 372.266,235.156 372.614,235.156 373.039 C 235.156 373.895,242.701 381.641,243.535 381.641 C 243.813 381.641,244.591 382.285,245.264 383.072 C 245.936 383.859,246.600 384.390,246.739 384.251 C 247.017 383.973,248.438 385.455,248.438 386.024 C 248.438 386.220,248.775 386.274,249.187 386.143 C 249.723 385.973,250.009 386.132,250.190 386.702 C 250.333 387.154,250.781 387.500,251.221 387.500 C 251.649 387.500,251.891 387.676,251.758 387.891 C 251.625 388.105,251.884 388.281,252.333 388.281 C 252.782 388.281,253.244 388.528,253.360 388.829 C 253.475 389.130,254.173 389.489,254.910 389.628 C 255.647 389.766,256.250 390.047,256.250 390.252 C 256.250 390.457,256.602 390.625,257.031 390.625 C 257.461 390.625,257.813 390.787,257.813 390.985 C 257.813 391.182,258.340 391.460,258.984 391.602 C 259.629 391.743,260.156 392.021,260.156 392.219 C 260.156 392.416,260.577 392.578,261.091 392.578 C 261.605 392.578,262.113 392.805,262.219 393.081 C 262.325 393.358,263.091 393.629,263.921 393.684 C 264.751 393.739,265.488 393.952,265.560 394.158 C 265.632 394.363,266.115 394.531,266.634 394.531 C 267.153 394.531,267.578 394.729,267.578 394.971 C 267.578 395.251,268.003 395.325,268.750 395.176 C 269.411 395.044,269.922 395.107,269.922 395.322 C 269.922 395.532,270.698 395.703,271.647 395.703 C 272.596 395.703,273.433 395.885,273.507 396.108 C 273.673 396.604,288.290 396.690,288.635 396.197 C 288.763 396.015,289.395 395.827,290.039 395.781 C 290.684 395.734,291.269 395.522,291.341 395.310 C 291.412 395.097,291.896 395.030,292.415 395.160 C 292.988 395.304,293.359 395.227,293.359 394.964 C 293.359 394.726,293.799 394.531,294.336 394.531 C 294.873 394.531,295.313 394.359,295.313 394.148 C 295.313 393.937,295.752 393.655,296.289 393.520 C 296.826 393.385,297.266 393.118,297.266 392.926 C 297.266 392.735,297.605 392.578,298.021 392.578 C 298.436 392.578,298.887 392.227,299.023 391.797 C 299.160 391.367,299.523 391.016,299.831 391.016 C 300.139 391.016,300.391 390.816,300.391 390.573 C 300.391 390.105,302.333 388.283,302.832 388.282 C 302.993 388.281,303.125 387.919,303.125 387.477 C 303.125 387.035,303.281 386.769,303.471 386.887 C 303.873 387.135,304.284 385.828,304.292 384.277 C 304.294 383.687,304.473 383.203,304.688 383.203 C 304.913 383.203,305.078 381.966,305.078 380.273 C 305.078 378.662,304.922 377.344,304.732 377.344 C 304.541 377.344,304.268 376.562,304.125 375.606 C 303.942 374.387,303.643 373.797,303.124 373.632 C 302.717 373.503,302.264 373.019,302.117 372.557 C 301.779 371.491,301.165 370.878,300.099 370.539 C 299.637 370.393,299.148 369.923,299.012 369.495 C 298.868 369.042,298.290 368.623,297.625 368.490 C 296.998 368.364,296.484 368.108,296.484 367.920 C 296.484 367.732,296.240 367.578,295.940 367.578 C 295.641 367.578,295.295 367.314,295.171 366.992 C 295.048 366.670,294.601 366.406,294.179 366.406 C 293.744 366.406,293.300 366.053,293.153 365.589 C 292.976 365.032,292.661 364.833,292.163 364.963 C 291.682 365.089,291.353 364.902,291.198 364.413 C 291.069 364.005,290.724 363.672,290.431 363.672 C 290.139 363.672,289.253 363.063,288.464 362.318 C 287.675 361.574,286.651 360.846,286.190 360.701 C 285.729 360.557,284.964 360.023,284.491 359.516 C 284.018 359.009,283.381 358.594,283.074 358.594 C 282.354 358.594,281.562 357.640,281.937 357.226 C 282.096 357.050,282.051 356.994,281.836 357.102 C 281.412 357.315,278.457 354.486,278.773 354.170 C 278.879 354.064,278.609 353.865,278.174 353.727 C 277.740 353.589,277.278 353.142,277.148 352.734 C 277.019 352.327,276.580 351.887,276.172 351.758 C 275.764 351.628,275.322 351.180,275.189 350.761 C 275.056 350.343,274.813 350.000,274.648 350.000 C 274.047 350.000,270.902 346.790,271.006 346.284 C 271.066 345.997,270.745 345.645,270.295 345.502 C 269.838 345.357,269.561 345.017,269.670 344.734 C 269.881 344.184,268.583 342.578,267.927 342.578 C 267.703 342.578,267.635 342.232,267.773 341.797 C 267.916 341.349,267.844 341.016,267.604 341.016 C 267.375 341.016,267.188 340.764,267.188 340.456 C 267.188 340.148,266.823 339.781,266.378 339.639 C 265.891 339.485,265.653 339.163,265.780 338.832 C 265.896 338.529,265.821 338.281,265.613 338.281 C 265.405 338.281,265.234 338.018,265.234 337.695 C 265.234 337.373,265.074 337.109,264.878 337.109 C 264.682 337.109,264.403 336.406,264.258 335.547 C 264.113 334.688,263.833 333.984,263.638 333.984 C 263.442 333.984,263.281 333.721,263.281 333.398 C 263.281 333.076,263.105 332.813,262.891 332.813 C 262.676 332.813,262.500 332.549,262.500 332.227 C 262.500 331.904,262.330 331.641,262.122 331.641 C 261.914 331.641,261.844 331.377,261.968 331.055 C 262.092 330.732,261.998 330.469,261.761 330.469 C 261.523 330.469,261.328 330.029,261.328 329.492 C 261.328 328.955,261.173 328.516,260.983 328.516 C 260.538 328.516,260.058 327.008,260.145 325.879 C 260.182 325.396,260.024 325.000,259.794 325.000 C 259.563 325.000,259.375 324.736,259.375 324.414 C 259.375 324.092,259.187 323.828,258.958 323.828 C 258.719 323.828,258.647 323.495,258.789 323.047 C 258.931 322.599,258.859 322.266,258.620 322.266 C 258.391 322.266,258.203 321.826,258.203 321.289 C 258.203 320.752,258.009 320.313,257.771 320.313 C 257.533 320.313,257.438 320.054,257.559 319.738 C 257.680 319.422,257.534 318.917,257.233 318.617 C 256.928 318.312,256.783 317.703,256.905 317.239 C 257.031 316.756,256.939 316.406,256.686 316.406 C 256.446 316.406,256.250 315.879,256.250 315.234 C 256.250 314.590,256.088 314.063,255.890 314.063 C 255.693 314.063,255.409 312.920,255.259 311.523 C 255.109 310.127,254.859 308.984,254.701 308.984 C 254.544 308.984,254.400 308.417,254.380 307.723 C 254.360 307.029,254.158 306.399,253.930 306.323 C 253.702 306.247,253.516 305.409,253.516 304.460 C 253.516 303.511,253.340 302.734,253.125 302.734 C 252.910 302.734,252.734 302.471,252.734 302.148 C 252.734 301.826,252.871 301.563,253.038 301.563 C 253.204 301.563,253.274 300.859,253.192 300.000 C 253.110 299.141,252.886 298.438,252.693 298.438 C 252.501 298.438,252.344 297.207,252.344 295.703 C 252.344 294.199,252.180 292.969,251.981 292.969 C 251.772 292.969,251.602 289.978,251.581 285.938 C 251.557 281.379,251.685 278.906,251.944 278.906 C 252.164 278.906,252.344 279.170,252.344 279.492 C 252.344 279.814,252.497 280.078,252.684 280.078 C 252.872 280.078,253.138 280.781,253.275 281.641 C 253.412 282.500,253.699 283.203,253.911 283.203 C 254.123 283.203,254.297 283.467,254.297 283.789 C 254.297 284.111,254.473 284.375,254.688 284.375 C 254.902 284.375,255.078 284.910,255.078 285.565 C 255.078 286.313,255.441 287.117,256.055 287.731 C 256.592 288.268,257.031 288.875,257.031 289.080 C 257.031 289.285,257.219 289.453,257.448 289.453 C 257.682 289.453,257.760 289.783,257.627 290.203 C 257.460 290.730,257.613 291.024,258.140 291.191 C 258.564 291.326,258.990 291.921,259.117 292.558 C 259.254 293.241,259.669 293.791,260.168 293.949 C 260.636 294.098,260.908 294.435,260.796 294.727 C 260.614 295.201,262.672 297.266,263.326 297.266 C 263.483 297.266,263.809 297.837,264.050 298.535 C 264.292 299.233,265.108 300.332,265.864 300.977 C 268.957 303.612,269.812 304.542,270.054 305.527 C 270.222 306.214,270.707 306.702,271.494 306.976 C 273.012 307.505,273.957 308.451,273.595 309.079 C 273.440 309.349,273.452 309.444,273.622 309.291 C 273.792 309.137,274.786 309.884,275.831 310.951 C 276.876 312.018,277.963 312.891,278.248 312.891 C 278.533 312.891,279.248 313.496,279.838 314.236 C 280.428 314.976,281.119 315.502,281.373 315.406 C 281.628 315.309,282.188 315.760,282.617 316.407 C 283.047 317.053,283.706 317.681,284.082 317.802 C 284.458 317.923,284.766 318.166,284.766 318.343 C 284.766 318.520,285.239 318.784,285.817 318.929 C 286.395 319.074,287.187 319.561,287.577 320.011 C 287.967 320.460,288.398 320.717,288.534 320.581 C 288.670 320.444,289.262 320.883,289.849 321.555 C 290.557 322.366,291.132 322.695,291.556 322.533 C 291.959 322.378,292.372 322.572,292.676 323.058 C 292.940 323.481,293.378 323.828,293.649 323.828 C 293.919 323.828,294.141 323.996,294.141 324.201 C 294.141 324.406,294.754 324.689,295.504 324.830 C 296.254 324.971,296.771 325.242,296.653 325.433 C 296.535 325.625,296.800 325.781,297.243 325.781 C 297.685 325.781,298.047 325.949,298.047 326.154 C 298.047 326.359,298.662 326.643,299.414 326.784 C 300.166 326.925,300.781 327.196,300.781 327.387 C 300.781 327.578,301.045 327.734,301.367 327.734 C 301.689 327.734,301.953 327.931,301.953 328.171 C 301.953 328.425,302.360 328.529,302.930 328.420 C 303.467 328.317,303.906 328.385,303.906 328.570 C 303.906 328.755,304.346 328.906,304.883 328.906 C 305.420 328.906,305.859 329.103,305.859 329.342 C 305.859 329.597,306.266 329.701,306.836 329.592 C 307.373 329.489,307.813 329.557,307.813 329.742 C 307.813 329.927,308.252 330.078,308.789 330.078 C 309.326 330.078,309.766 330.254,309.766 330.469 C 309.766 330.684,310.293 330.859,310.938 330.859 C 311.582 330.859,312.109 331.056,312.109 331.296 C 312.109 331.551,312.517 331.654,313.095 331.543 C 313.637 331.440,314.175 331.507,314.290 331.693 C 314.405 331.879,315.104 332.031,315.843 332.031 C 316.583 332.031,317.188 332.207,317.188 332.422 C 317.188 332.637,317.880 332.813,318.727 332.813 C 319.574 332.812,320.363 332.969,320.481 333.160 C 320.757 333.606,323.438 333.929,323.438 333.515 C 323.438 333.344,323.701 333.203,324.023 333.203 C 324.346 333.203,324.609 333.379,324.609 333.594 C 324.609 333.827,326.107 333.984,328.320 333.984 C 330.534 333.984,332.031 334.142,332.031 334.375 C 332.031 334.590,332.921 334.766,334.007 334.766 C 335.225 334.766,335.891 334.616,335.742 334.375 C 335.588 334.126,336.772 333.984,339.016 333.984 C 340.950 333.984,342.641 333.808,342.774 333.593 C 342.913 333.368,343.669 333.306,344.555 333.448 C 345.582 333.612,346.094 333.547,346.094 333.253 C 346.094 333.010,346.707 332.813,347.461 332.813 C 348.291 332.813,348.830 332.621,348.834 332.324 C 348.838 331.999,348.966 332.031,349.219 332.422 C 349.471 332.813,349.599 332.845,349.603 332.520 C 349.607 332.251,349.961 332.031,350.391 332.031 C 350.820 332.031,351.172 331.886,351.172 331.708 C 351.172 331.531,351.724 331.466,352.399 331.565 C 353.249 331.690,353.542 331.609,353.353 331.302 C 353.176 331.016,353.433 330.859,354.079 330.859 C 354.628 330.859,355.078 330.703,355.078 330.512 C 355.078 330.321,355.693 330.050,356.445 329.909 C 357.197 329.768,357.813 329.484,357.813 329.279 C 357.813 329.074,357.987 328.906,358.200 328.906 C 359.155 328.906,361.747 327.480,361.949 326.843 C 362.099 326.372,362.409 326.214,362.891 326.367 C 363.391 326.526,363.686 326.353,363.862 325.798 C 364.001 325.359,364.279 324.978,364.479 324.951 C 364.680 324.924,365.005 324.880,365.202 324.854 C 365.398 324.827,365.900 324.412,366.315 323.933 C 366.731 323.453,367.195 323.184,367.345 323.335 C 367.496 323.486,367.496 323.286,367.344 322.892 C 367.117 322.301,367.211 322.220,367.878 322.432 C 368.481 322.624,368.751 322.486,368.940 321.891 C 369.079 321.453,369.330 321.094,369.498 321.094 C 370.067 321.094,371.557 319.575,371.337 319.219 C 371.217 319.024,371.728 318.357,372.473 317.735 C 373.219 317.114,373.828 316.385,373.828 316.115 C 373.828 315.846,374.024 315.625,374.264 315.625 C 374.508 315.625,374.610 315.281,374.496 314.844 C 374.384 314.414,374.407 314.061,374.548 314.059 C 374.955 314.055,375.781 312.042,375.781 311.055 C 375.781 310.561,375.957 310.156,376.172 310.156 C 376.665 310.156,376.685 306.858,376.197 305.952 C 375.997 305.579,375.602 304.702,375.321 304.004 C 375.039 303.306,374.665 302.734,374.488 302.734 C 374.311 302.734,374.285 302.361,374.430 301.904 C 374.580 301.429,374.539 301.170,374.332 301.297 C 374.133 301.420,373.724 301.179,373.422 300.760 C 373.121 300.342,372.639 300.000,372.352 300.000 C 372.064 300.000,371.939 299.822,372.073 299.605 C 372.209 299.385,371.785 299.103,371.120 298.970 C 370.461 298.838,369.922 298.579,369.922 298.393 C 369.922 298.208,369.219 297.944,368.359 297.806 C 367.500 297.669,366.797 297.403,366.797 297.216 C 366.797 297.028,366.357 296.875,365.820 296.875 C 365.283 296.875,364.844 296.676,364.844 296.434 C 364.844 296.142,364.252 296.059,363.102 296.188 C 362.144 296.296,361.309 296.234,361.246 296.050 C 361.184 295.865,358.101 295.700,354.395 295.683 C 350.506 295.665,347.656 295.497,347.656 295.286 C 347.656 295.086,346.777 294.922,345.703 294.922 C 344.533 294.922,343.750 294.748,343.750 294.489 C 343.750 294.223,343.220 294.117,342.383 294.215 C 341.631 294.303,341.016 294.234,341.016 294.062 C 341.016 293.890,340.400 293.750,339.648 293.750 C 338.896 293.750,338.281 293.574,338.281 293.359 C 338.281 293.145,337.842 292.969,337.305 292.969 C 336.768 292.969,336.328 292.799,336.328 292.592 C 336.328 292.384,335.449 292.098,334.375 291.955 C 333.301 291.813,332.422 291.543,332.422 291.356 C 332.422 291.169,332.058 291.016,331.613 291.016 C 331.168 291.016,330.540 290.752,330.218 290.430 C 329.895 290.107,329.117 289.844,328.488 289.844 C 327.859 289.844,327.344 289.668,327.344 289.453 C 327.344 289.238,327.070 289.063,326.735 289.063 C 326.400 289.062,326.222 288.906,326.341 288.715 C 326.459 288.523,325.942 288.252,325.192 288.111 C 324.442 287.970,323.828 287.707,323.828 287.526 C 323.828 287.345,323.230 287.084,322.499 286.947 C 321.767 286.810,321.069 286.436,320.946 286.116 C 320.824 285.797,320.279 285.366,319.737 285.160 C 319.194 284.954,318.750 284.605,318.750 284.385 C 318.750 284.165,318.483 283.984,318.157 283.984 C 317.831 283.984,316.990 283.393,316.288 282.670 C 315.586 281.947,314.622 281.232,314.147 281.081 C 313.362 280.832,313.105 280.412,313.235 279.590 C 313.260 279.429,313.031 279.297,312.725 279.297 C 312.241 279.297,311.664 278.794,309.491 276.477 C 309.233 276.202,308.794 275.765,308.515 275.507 C 308.236 275.249,307.797 274.809,307.538 274.530 C 307.280 274.252,306.841 273.812,306.562 273.554 C 306.283 273.296,305.851 272.856,305.602 272.577 C 305.354 272.298,304.703 271.719,304.156 271.289 C 303.609 270.859,303.153 270.281,303.143 270.003 C 303.125 269.493,302.934 269.218,301.172 267.156 C 300.635 266.528,299.997 265.781,299.755 265.497 C 299.513 265.212,299.180 264.553,299.015 264.032 C 298.851 263.512,298.390 262.802,297.991 262.454 C 297.592 262.107,297.266 261.638,297.266 261.413 C 297.266 261.187,297.046 260.914,296.777 260.806 C 296.407 260.656,296.404 260.601,296.765 260.578 C 297.027 260.561,297.140 260.284,297.017 259.963 C 296.894 259.642,296.636 259.477,296.443 259.596 C 296.251 259.714,296.094 259.450,296.094 259.007 C 296.094 258.565,295.926 258.203,295.721 258.203 C 295.516 258.203,295.230 257.576,295.086 256.809 C 294.942 256.042,294.495 255.209,294.092 254.957 C 293.689 254.705,293.359 254.190,293.359 253.812 C 293.359 253.434,293.189 253.125,292.981 253.125 C 292.773 253.125,292.704 252.861,292.827 252.539 C 292.951 252.217,292.858 251.953,292.620 251.953 C 292.382 251.953,292.188 251.427,292.188 250.785 C 292.188 250.074,291.907 249.441,291.471 249.168 C 290.997 248.872,290.814 248.408,290.930 247.798 C 291.031 247.273,290.918 246.875,290.671 246.875 C 290.431 246.875,290.234 246.436,290.234 245.898 C 290.234 245.361,290.063 244.922,289.854 244.922 C 289.635 244.922,289.577 244.398,289.719 243.689 C 289.895 242.808,289.837 242.536,289.514 242.736 C 289.266 242.889,289.063 242.829,289.063 242.601 C 289.063 242.070,289.722 242.065,290.049 242.594 C 290.187 242.818,290.637 242.894,291.048 242.763 C 291.467 242.630,291.797 242.709,291.797 242.942 C 291.797 243.172,292.042 243.359,292.341 243.359 C 292.640 243.359,292.996 243.648,293.131 244.001 C 293.267 244.354,293.485 244.536,293.615 244.406 C 293.746 244.275,294.220 244.426,294.669 244.740 C 295.119 245.055,295.799 245.313,296.181 245.313 C 296.563 245.313,296.875 245.488,296.875 245.703 C 296.875 245.918,297.139 246.094,297.461 246.094 C 297.783 246.094,298.047 246.289,298.047 246.527 C 298.047 246.794,298.422 246.866,299.023 246.715 C 299.587 246.573,300.000 246.638,300.000 246.868 C 300.000 247.086,300.352 247.266,300.781 247.266 C 301.211 247.266,301.563 247.439,301.563 247.652 C 301.563 247.864,302.262 248.150,303.118 248.286 C 303.973 248.423,304.578 248.689,304.462 248.877 C 304.346 249.065,304.788 249.219,305.446 249.219 C 306.103 249.219,306.641 249.377,306.641 249.571 C 306.641 249.765,307.695 250.046,308.984 250.195 C 310.273 250.345,311.328 250.626,311.328 250.820 C 311.328 251.013,312.031 251.172,312.891 251.172 C 313.792 251.172,314.453 251.359,314.453 251.613 C 314.453 251.906,315.049 251.988,316.217 251.856 C 317.187 251.747,318.077 251.812,318.193 252.000 C 318.492 252.484,333.984 252.445,333.984 251.961 C 333.984 251.730,334.700 251.675,335.781 251.824 C 337.090 252.003,337.666 251.925,337.907 251.536 C 338.120 251.192,338.799 251.043,339.821 251.117 C 340.763 251.185,341.406 251.061,341.406 250.811 C 341.406 250.580,342.021 250.391,342.773 250.391 C 343.525 250.391,344.141 250.256,344.141 250.091 C 344.141 249.926,344.756 249.820,345.508 249.855 C 346.260 249.891,346.875 249.762,346.875 249.569 C 346.875 249.376,347.139 249.219,347.461 249.219 C 347.783 249.219,348.047 249.066,348.047 248.879 C 348.047 248.692,348.860 248.447,349.853 248.336 C 350.846 248.224,351.769 247.968,351.904 247.768 C 352.257 247.242,353.600 246.741,354.395 246.840 C 354.771 246.886,355.078 246.737,355.078 246.509 C 355.078 246.281,355.342 246.094,355.664 246.094 C 355.986 246.094,356.250 245.918,356.250 245.703 C 356.250 245.488,356.602 245.313,357.031 245.313 C 357.461 245.313,357.813 245.142,357.813 244.934 C 357.813 244.726,358.076 244.657,358.398 244.781 C 358.721 244.904,358.984 244.811,358.984 244.573 C 358.984 244.335,359.248 244.141,359.570 244.141 C 359.893 244.141,360.156 243.965,360.156 243.750 C 360.156 243.535,360.420 243.359,360.742 243.359 C 361.064 243.359,361.328 243.172,361.328 242.942 C 361.328 242.703,361.661 242.631,362.109 242.773 C 362.558 242.916,362.891 242.844,362.891 242.604 C 362.891 242.375,363.154 242.188,363.477 242.188 C 363.799 242.188,364.063 242.012,364.063 241.797 C 364.063 241.582,364.420 241.406,364.856 241.406 C 365.292 241.406,365.751 241.143,365.874 240.820 C 365.998 240.498,366.420 240.234,366.812 240.234 C 367.205 240.234,367.631 239.901,367.761 239.493 C 367.916 239.004,368.244 238.817,368.726 238.943 C 369.224 239.073,369.538 238.874,369.715 238.317 C 369.858 237.868,370.275 237.500,370.643 237.500 C 371.010 237.500,372.172 236.533,373.225 235.352 C 374.277 234.170,375.440 233.203,375.809 233.203 C 376.369 233.203,376.784 232.683,377.054 231.641 C 377.175 231.176,377.870 230.452,380.288 228.274 C 381.032 227.604,381.641 226.766,381.641 226.410 C 381.641 226.055,382.062 225.572,382.577 225.338 C 383.126 225.088,383.605 224.457,383.733 223.815 C 383.862 223.170,384.287 222.613,384.766 222.461 C 385.336 222.280,385.511 221.988,385.352 221.484 C 385.196 220.995,385.360 220.691,385.864 220.531 C 386.271 220.402,386.938 219.641,387.345 218.839 C 387.753 218.038,388.400 217.093,388.783 216.739 C 389.166 216.386,389.455 215.946,389.424 215.763 C 389.323 215.154,389.929 213.672,390.280 213.672 C 390.470 213.672,390.625 213.398,390.625 213.063 C 390.625 212.702,390.809 212.567,391.077 212.733 C 391.398 212.932,391.459 212.666,391.287 211.807 C 391.130 211.023,391.212 210.547,391.519 210.444 C 392.237 210.205,392.184 199.309,391.462 198.863 C 391.130 198.657,391.030 198.227,391.195 197.707 C 391.408 197.035,391.331 196.928,390.782 197.139 C 390.320 197.316,390.196 197.253,390.391 196.938 C 390.653 196.514,390.501 196.250,389.179 194.838 C 388.321 193.921,386.453 192.663,385.449 192.326 C 385.073 192.200,384.766 191.941,384.766 191.751 C 384.766 191.562,384.502 191.406,384.180 191.406 C 383.857 191.406,383.594 191.210,383.594 190.970 C 383.594 190.722,383.195 190.610,382.670 190.711 C 382.162 190.808,381.451 190.671,381.089 190.407 C 380.728 190.143,380.089 190.016,379.669 190.126 C 379.247 190.236,378.906 190.130,378.906 189.888 C 378.906 189.591,377.494 189.448,374.512 189.445 C 367.760 189.437,367.028 189.472,366.807 189.806 C 366.694 189.976,365.547 190.237,364.258 190.384 C 362.969 190.531,361.855 190.822,361.784 191.029 C 361.712 191.237,361.405 191.406,361.100 191.406 C 360.796 191.406,360.547 191.562,360.547 191.753 C 360.547 191.943,359.765 192.216,358.809 192.359 C 357.570 192.545,357.001 192.839,356.829 193.380 C 356.697 193.799,356.336 194.141,356.028 194.141 C 355.721 194.141,355.469 194.300,355.469 194.495 C 355.469 194.689,355.134 194.761,354.725 194.654 C 354.212 194.520,353.901 194.713,353.722 195.277 C 353.580 195.726,353.173 196.094,352.818 196.094 C 352.463 196.094,351.771 196.562,351.280 197.133 C 350.789 197.705,350.274 198.060,350.135 197.922 C 349.853 197.640,348.438 199.132,348.438 199.711 C 348.438 199.916,348.153 199.974,347.805 199.841 C 347.186 199.603,345.703 200.879,345.703 201.649 C 345.703 201.845,345.396 201.909,345.020 201.790 C 344.538 201.639,344.126 201.943,343.626 202.819 C 343.079 203.776,342.838 203.936,342.578 203.516 C 342.316 203.092,342.139 203.196,341.779 203.984 C 341.483 204.634,340.893 205.083,340.137 205.234 C 339.488 205.364,338.651 205.824,338.276 206.256 C 337.828 206.773,337.354 206.951,336.897 206.775 C 336.419 206.592,336.289 206.651,336.482 206.965 C 336.674 207.276,336.384 207.422,335.573 207.422 C 334.812 207.422,334.209 207.699,333.902 208.189 C 333.565 208.729,333.159 208.890,332.532 208.733 C 332.005 208.601,331.641 208.686,331.641 208.942 C 331.641 209.180,331.113 209.375,330.469 209.375 C 329.824 209.375,329.297 209.556,329.297 209.778 C 329.297 210.040,327.172 210.165,323.242 210.135 C 319.875 210.110,317.188 209.931,317.188 209.732 C 317.188 209.536,316.572 209.375,315.820 209.375 C 315.068 209.375,314.453 209.201,314.453 208.989 C 314.453 208.777,313.750 208.491,312.891 208.353 C 312.031 208.216,311.328 207.950,311.328 207.763 C 311.328 207.575,311.054 207.422,310.719 207.422 C 310.384 207.422,310.220 207.244,310.354 207.027 C 310.490 206.808,310.076 206.527,309.426 206.397 C 308.781 206.268,308.159 205.918,308.045 205.620 C 307.931 205.322,307.570 205.078,307.243 205.078 C 306.396 205.078,305.078 203.853,305.078 203.065 C 305.078 202.672,304.719 202.347,304.203 202.273 C 303.698 202.201,303.265 201.818,303.179 201.368 C 303.097 200.939,302.612 200.200,302.101 199.727 C 301.590 199.253,301.172 198.612,301.172 198.303 C 301.172 197.993,300.908 197.639,300.586 197.515 C 300.264 197.391,300.000 197.021,300.000 196.692 C 300.000 196.363,299.824 196.094,299.609 196.094 C 299.395 196.094,299.219 195.830,299.219 195.508 C 299.219 195.186,299.051 194.922,298.847 194.922 C 298.642 194.922,298.541 194.395,298.623 193.750 C 298.704 193.105,298.608 192.578,298.409 192.578 C 298.210 192.578,298.047 192.314,298.047 191.992 C 298.047 191.670,297.871 191.406,297.656 191.406 C 297.441 191.406,297.266 190.967,297.266 190.430 C 297.266 189.893,297.120 189.453,296.943 189.453 C 296.765 189.453,296.697 188.926,296.792 188.281 C 296.895 187.578,296.790 187.109,296.529 187.109 C 296.267 187.109,296.094 186.331,296.094 185.156 C 296.094 184.082,295.918 183.203,295.703 183.203 C 295.468 183.203,295.313 181.576,295.313 179.102 C 295.313 176.628,295.468 175.000,295.703 175.000 C 295.918 175.000,296.094 174.033,296.094 172.852 C 296.094 171.544,296.263 170.703,296.525 170.703 C 296.793 170.703,296.901 170.111,296.808 169.141 C 296.726 168.281,296.796 167.578,296.962 167.578 C 297.129 167.578,297.266 166.963,297.266 166.211 C 297.266 165.459,297.441 164.844,297.656 164.844 C 297.871 164.844,298.047 164.404,298.047 163.867 C 298.047 163.330,298.242 162.891,298.480 162.891 C 298.747 162.891,298.819 162.516,298.668 161.914 C 298.526 161.351,298.591 160.938,298.821 160.938 C 299.040 160.938,299.219 160.601,299.219 160.189 C 299.219 159.777,299.406 159.378,299.635 159.301 C 299.863 159.225,300.150 158.420,300.272 157.511 C 300.394 156.603,300.646 155.859,300.833 155.859 C 301.019 155.859,301.172 155.596,301.172 155.273 C 301.172 154.951,301.325 154.688,301.513 154.688 C 301.700 154.687,301.966 153.984,302.103 153.125 C 302.241 152.266,302.527 151.562,302.739 151.562 C 302.951 151.563,303.125 151.299,303.125 150.977 C 303.125 150.654,303.323 150.391,303.564 150.391 C 303.844 150.391,303.919 149.965,303.770 149.219 C 303.637 148.558,303.701 148.047,303.916 148.047 C 304.125 148.047,304.297 147.783,304.297 147.461 C 304.297 147.139,304.473 146.875,304.688 146.875 C 304.902 146.875,305.078 146.436,305.078 145.898 C 305.078 145.361,305.273 144.922,305.511 144.922 C 305.778 144.922,305.850 144.547,305.699 143.945 C 305.558 143.382,305.622 142.969,305.852 142.969 C 306.071 142.969,306.250 142.529,306.250 141.992 C 306.250 141.455,306.426 141.016,306.641 141.016 C 306.855 141.016,307.031 140.576,307.031 140.039 C 307.031 139.502,307.226 139.063,307.464 139.063 C 307.731 139.063,307.803 138.688,307.652 138.086 C 307.511 137.523,307.576 137.109,307.805 137.109 C 308.024 137.109,308.203 136.582,308.203 135.938 C 308.203 135.293,308.379 134.766,308.594 134.766 C 308.809 134.766,308.984 134.161,308.984 133.421 C 308.984 132.682,309.180 131.957,309.418 131.809 C 309.672 131.652,309.763 130.995,309.638 130.224 C 309.520 129.499,309.589 128.906,309.790 128.906 C 309.992 128.906,310.156 128.027,310.156 126.953 C 310.156 125.822,310.333 125.000,310.576 125.000 C 310.832 125.000,310.955 124.245,310.892 123.056 C 310.835 121.987,310.910 120.991,311.059 120.842 C 311.207 120.694,311.328 119.372,311.328 117.904 C 311.328 116.385,311.496 115.234,311.719 115.234 C 311.966 115.234,312.109 112.305,312.109 107.227 C 312.109 102.148,311.966 99.219,311.719 99.219 C 311.496 99.219,311.328 98.047,311.328 96.484 C 311.328 94.980,311.178 93.750,310.995 93.750 C 310.812 93.750,310.748 92.845,310.855 91.740 C 310.994 90.294,310.923 89.807,310.602 90.005 C 310.296 90.194,310.156 89.783,310.156 88.695 C 310.156 87.823,309.988 87.109,309.781 87.109 C 309.575 87.109,309.404 86.626,309.402 86.035 C 309.394 84.192,308.917 81.641,308.581 81.641 C 308.404 81.641,308.139 80.674,307.991 79.492 C 307.843 78.311,307.567 77.344,307.377 77.344 C 307.187 77.344,307.031 77.158,307.031 76.930 C 307.031 76.703,307.220 76.633,307.451 76.776 C 307.681 76.918,307.639 76.665,307.357 76.213 C 307.074 75.761,306.695 75.391,306.514 75.391 C 306.333 75.391,306.264 75.171,306.360 74.902 C 306.456 74.634,306.348 74.063,306.119 73.633 C 305.891 73.203,305.751 72.456,305.809 71.973 C 305.868 71.489,305.727 71.094,305.497 71.094 C 305.266 71.094,305.078 70.830,305.078 70.508 C 305.078 70.186,304.925 69.922,304.737 69.922 C 304.550 69.922,304.284 69.219,304.147 68.359 C 304.009 67.500,303.723 66.797,303.511 66.797 C 303.299 66.797,303.125 66.533,303.125 66.211 C 303.125 65.889,302.957 65.625,302.752 65.625 C 302.547 65.625,302.264 65.010,302.123 64.258 C 301.982 63.506,301.710 62.891,301.519 62.891 C 301.328 62.891,301.172 62.627,301.172 62.305 C 301.172 61.982,300.996 61.719,300.781 61.719 C 300.566 61.719,300.419 61.587,300.455 61.426 C 300.574 60.881,299.917 58.984,299.609 58.984 C 299.441 58.984,299.193 58.545,299.058 58.008 C 298.924 57.471,298.641 57.031,298.430 57.031 C 298.219 57.031,298.047 56.768,298.047 56.445 C 298.047 56.123,297.871 55.859,297.656 55.859 C 297.441 55.859,297.266 55.502,297.266 55.066 C 297.266 54.629,297.002 54.171,296.680 54.048 C 296.357 53.924,296.094 53.578,296.094 53.279 C 296.094 52.979,295.918 52.734,295.703 52.734 C 295.488 52.734,295.313 52.377,295.313 51.941 C 295.313 51.504,295.049 51.046,294.727 50.923 C 294.404 50.799,294.141 50.377,294.141 49.985 C 294.141 49.592,293.807 49.166,293.399 49.036 C 292.943 48.891,292.723 48.543,292.827 48.131 C 292.938 47.689,292.584 47.230,291.785 46.781 C 291.119 46.407,290.679 45.932,290.807 45.725 C 291.093 45.261,289.851 43.750,289.183 43.750 C 288.915 43.750,288.795 43.493,288.916 43.179 C 289.126 42.631,288.139 41.497,286.363 40.246 C 285.867 39.897,285.631 39.413,285.759 39.008 C 285.898 38.572,285.703 38.259,285.193 38.097 C 284.765 37.962,284.309 37.517,284.180 37.109 C 284.050 36.702,283.611 36.262,283.203 36.133 C 282.795 36.003,282.353 35.555,282.220 35.136 C 282.087 34.718,281.828 34.375,281.644 34.375 C 281.209 34.375,278.906 32.072,278.906 31.637 C 278.906 31.453,278.564 31.194,278.145 31.061 C 277.726 30.928,277.270 30.461,277.131 30.022 C 276.965 29.502,276.638 29.288,276.185 29.407 C 275.782 29.512,275.266 29.267,274.953 28.822 C 273.898 27.322,272.686 26.172,272.159 26.172 C 271.865 26.172,271.134 25.557,270.535 24.805 C 269.935 24.053,269.209 23.438,268.921 23.437 C 268.634 23.437,268.235 23.147,268.037 22.791 C 267.825 22.413,267.420 22.243,267.061 22.381 C 266.663 22.533,266.361 22.348,266.205 21.855 C 266.072 21.436,265.642 21.094,265.250 21.094 C 264.858 21.094,264.436 20.830,264.312 20.508 C 264.188 20.186,263.730 19.922,263.294 19.922 C 262.857 19.922,262.500 19.746,262.500 19.531 C 262.500 19.316,262.251 19.141,261.947 19.141 C 261.642 19.141,261.335 19.006,261.263 18.841 C 260.958 18.137,258.888 16.858,258.374 17.056 C 258.065 17.174,257.813 17.082,257.813 16.851 C 257.813 16.620,257.549 16.532,257.227 16.656 C 256.904 16.779,256.641 16.686,256.641 16.448 C 256.641 16.210,256.377 16.016,256.055 16.016 C 255.732 16.016,255.469 15.840,255.469 15.625 C 255.469 15.410,255.205 15.234,254.883 15.234 C 254.561 15.234,254.297 15.047,254.297 14.817 C 254.297 14.578,253.964 14.506,253.516 14.648 C 253.067 14.791,252.734 14.719,252.734 14.479 C 252.734 14.250,252.471 14.063,252.148 14.063 C 251.826 14.063,251.563 13.889,251.563 13.676 C 251.563 13.464,250.859 13.178,250.000 13.041 C 249.141 12.903,248.438 12.637,248.438 12.450 C 248.438 12.263,248.174 12.109,247.852 12.109 C 247.529 12.109,247.266 11.956,247.266 11.769 C 247.266 11.581,246.563 11.316,245.703 11.178 C 244.844 11.041,244.141 10.755,244.141 10.542 C 244.141 10.330,243.613 10.156,242.969 10.156 C 242.324 10.156,241.797 9.983,241.797 9.770 C 241.797 9.558,241.094 9.272,240.234 9.134 C 239.375 8.997,238.672 8.731,238.672 8.544 C 238.672 8.356,238.232 8.203,237.695 8.203 C 237.158 8.203,236.719 8.008,236.719 7.770 C 236.719 7.503,236.344 7.431,235.742 7.582 C 235.179 7.724,234.766 7.659,234.766 7.429 C 234.766 7.210,234.341 7.031,233.822 7.031 C 233.302 7.031,232.816 6.848,232.742 6.623 C 232.667 6.399,232.213 6.186,231.732 6.150 C 231.252 6.113,230.859 5.923,230.859 5.727 C 230.859 5.531,230.332 5.477,229.688 5.605 C 229.026 5.738,228.516 5.674,228.516 5.459 C 228.516 5.250,227.900 5.078,227.148 5.078 C 226.396 5.078,225.781 4.889,225.781 4.658 C 225.781 4.414,225.165 4.280,224.316 4.339 C 223.511 4.394,222.438 4.216,221.932 3.942 C 221.361 3.633,220.485 3.543,219.628 3.704 C 218.868 3.846,218.139 3.797,218.009 3.595 C 217.694 3.103,201.410 2.762,195.508 3.123 M254.792 110.677 C 258.352 112.424,260.998 115.378,263.361 120.244 L 265.385 124.414 265.294 128.399 C 265.190 132.918,264.494 137.105,263.539 138.945 C 262.795 140.380,262.727 140.772,263.281 140.430 C 264.157 139.888,263.594 141.011,262.598 141.793 C 262.007 142.257,261.787 142.501,262.109 142.337 C 263.021 141.871,261.963 143.142,259.224 145.802 C 252.777 152.063,245.076 151.889,238.723 145.338 C 236.431 142.975,233.978 139.409,234.002 138.477 C 234.007 138.262,234.263 138.525,234.570 139.063 C 234.877 139.600,235.129 139.863,235.129 139.648 C 235.129 139.002,234.070 137.296,233.746 137.421 C 232.801 137.787,231.945 127.712,232.749 125.680 C 232.898 125.302,232.956 126.885,232.877 129.197 C 232.770 132.316,232.895 133.905,233.361 135.353 L 233.990 137.305 233.694 135.352 C 233.319 132.871,233.312 126.845,233.682 124.805 C 233.871 123.767,233.847 123.505,233.612 124.023 C 233.325 124.658,233.253 124.681,233.231 124.149 C 233.215 123.789,233.841 122.295,234.621 120.829 C 235.401 119.363,236.296 117.674,236.610 117.076 C 239.965 110.680,248.602 107.641,254.792 110.677 M156.436 111.108 C 158.867 112.300,162.346 115.469,163.369 117.423 C 163.695 118.045,164.599 119.754,165.379 121.220 C 166.159 122.686,166.785 124.180,166.769 124.540 C 166.747 125.072,166.675 125.048,166.388 124.414 C 166.153 123.895,166.129 124.157,166.318 125.195 C 166.688 127.236,166.681 133.261,166.306 135.742 L 166.010 137.695 166.639 135.743 C 167.105 134.295,167.230 132.707,167.123 129.588 C 167.044 127.276,167.102 125.693,167.251 126.071 C 168.055 128.101,167.157 138.531,166.234 137.891 C 165.938 137.685,164.871 139.368,164.871 140.039 C 164.871 140.254,165.123 139.990,165.430 139.453 C 165.737 138.916,165.993 138.652,165.998 138.867 C 166.022 139.800,163.569 143.366,161.277 145.729 C 154.924 152.279,147.223 152.453,140.776 146.192 C 138.037 143.532,136.979 142.262,137.891 142.727 C 138.213 142.892,137.993 142.647,137.402 142.184 C 136.406 141.402,135.843 140.279,136.719 140.820 C 137.273 141.163,137.205 140.771,136.461 139.336 C 135.506 137.495,134.810 133.308,134.706 128.789 L 134.615 124.805 136.622 120.703 C 141.345 111.052,148.883 107.403,156.436 111.108 M265.905 131.538 C 265.816 132.131,265.740 131.738,265.737 130.664 C 265.734 129.590,265.807 129.104,265.900 129.584 C 265.993 130.065,265.995 130.944,265.905 131.538 M134.265 131.928 C 134.175 132.522,134.099 132.129,134.096 131.055 C 134.093 129.980,134.167 129.495,134.259 129.975 C 134.352 130.456,134.354 131.334,134.265 131.928 M265.016 137.323 C 264.643 138.508,264.179 139.576,263.985 139.696 C 263.791 139.816,263.877 139.327,264.176 138.610 C 264.476 137.892,264.859 136.602,265.028 135.742 C 265.196 134.883,265.415 134.402,265.514 134.674 C 265.613 134.946,265.389 136.138,265.016 137.323 M135.814 138.867 C 136.130 139.727,136.216 140.254,136.006 140.039 C 135.501 139.524,134.364 136.093,134.415 135.240 C 134.437 134.872,134.632 135.186,134.848 135.938 C 135.064 136.689,135.499 138.008,135.814 138.867 " stroke="none" fill="#f4f4f4" fill-rule="evenodd"></path></g></svg>