<svg xmlns="http://www.w3.org/2000/svg" xmlns:xlink="http://www.w3.org/1999/xlink" width="200" zoomAndPan="magnify" viewBox="0 0 150 155.999997" height="208" preserveAspectRatio="xMidYMid meet" version="1.0"><defs><clipPath id="6a6b28193b"><path d="M 0 0 L 149.394531 0 L 149.394531 155.230469 L 0 155.230469 Z M 0 0 " clip-rule="nonzero"/></clipPath><clipPath id="c9ed2f26a2"><path d="M 121.925781 155.394531 L 27.46875 155.394531 C 12.332031 155.394531 0 143.0625 0 127.925781 L 0 27.46875 C 0 12.332031 12.332031 0 27.46875 0 L 121.925781 0 C 137.0625 0 149.394531 12.332031 149.394531 27.46875 L 149.394531 127.925781 C 149.394531 143.0625 137.0625 155.394531 121.925781 155.394531 Z M 121.925781 155.394531 " clip-rule="nonzero"/></clipPath><linearGradient x1="0" gradientTransform="matrix(0.583575, 0, 0, 0.583575, 0.00000144231, -0.000227)" y1="133.141006" x2="255.999985" gradientUnits="userSpaceOnUse" y2="133.141006" id="e139b86bd9"><stop stop-opacity="1" stop-color="rgb(7.499695%, 20.799255%, 58.799744%)" offset="0"/><stop stop-opacity="1" stop-color="rgb(7.499695%, 20.751953%, 58.64563%)" offset="0.0078125"/><stop stop-opacity="1" stop-color="rgb(7.502747%, 20.655823%, 58.338928%)" offset="0.015625"/><stop stop-opacity="1" stop-color="rgb(7.504272%, 20.561218%, 58.033752%)" offset="0.0234375"/><stop stop-opacity="1" stop-color="rgb(7.507324%, 20.465088%, 57.727051%)" offset="0.03125"/><stop stop-opacity="1" stop-color="rgb(7.50885%, 20.370483%, 57.420349%)" offset="0.0390625"/><stop stop-opacity="1" stop-color="rgb(7.511902%, 20.274353%, 57.113647%)" offset="0.046875"/><stop stop-opacity="1" stop-color="rgb(7.513428%, 20.179749%, 56.808472%)" offset="0.0546875"/><stop stop-opacity="1" stop-color="rgb(7.516479%, 20.083618%, 56.50177%)" offset="0.0625"/><stop stop-opacity="1" stop-color="rgb(7.519531%, 19.989014%, 56.195068%)" offset="0.0703125"/><stop stop-opacity="1" stop-color="rgb(7.521057%, 19.892883%, 55.889893%)" offset="0.078125"/><stop stop-opacity="1" stop-color="rgb(7.524109%, 19.798279%, 55.583191%)" offset="0.0859375"/><stop stop-opacity="1" stop-color="rgb(7.525635%, 19.702148%, 55.276489%)" offset="0.09375"/><stop stop-opacity="1" stop-color="rgb(7.528687%, 19.607544%, 54.971313%)" offset="0.101562"/><stop stop-opacity="1" stop-color="rgb(7.530212%, 19.511414%, 54.664612%)" offset="0.109375"/><stop stop-opacity="1" stop-color="rgb(7.533264%, 19.416809%, 54.35791%)" offset="0.117187"/><stop stop-opacity="1" stop-color="rgb(7.53479%, 19.322205%, 54.051208%)" offset="0.125"/><stop stop-opacity="1" stop-color="rgb(7.537842%, 19.226074%, 53.746033%)" offset="0.132812"/><stop stop-opacity="1" stop-color="rgb(7.539368%, 19.13147%, 53.439331%)" offset="0.140625"/><stop stop-opacity="1" stop-color="rgb(7.542419%, 19.035339%, 53.132629%)" offset="0.148438"/><stop stop-opacity="1" stop-color="rgb(7.543945%, 18.940735%, 52.827454%)" offset="0.15625"/><stop stop-opacity="1" stop-color="rgb(7.546997%, 18.844604%, 52.520752%)" offset="0.164062"/><stop stop-opacity="1" stop-color="rgb(7.548523%, 18.75%, 52.21405%)" offset="0.171875"/><stop stop-opacity="1" stop-color="rgb(7.551575%, 18.65387%, 51.907349%)" offset="0.179688"/><stop stop-opacity="1" stop-color="rgb(7.554626%, 18.559265%, 51.602173%)" offset="0.1875"/><stop stop-opacity="1" stop-color="rgb(7.556152%, 18.463135%, 51.295471%)" offset="0.195312"/><stop stop-opacity="1" stop-color="rgb(7.559204%, 18.36853%, 50.98877%)" offset="0.203125"/><stop stop-opacity="1" stop-color="rgb(7.56073%, 18.2724%, 50.683594%)" offset="0.210938"/><stop stop-opacity="1" stop-color="rgb(7.563782%, 18.177795%, 50.376892%)" offset="0.21875"/><stop stop-opacity="1" stop-color="rgb(7.565308%, 18.083191%, 50.07019%)" offset="0.226562"/><stop stop-opacity="1" stop-color="rgb(7.568359%, 17.987061%, 49.765015%)" offset="0.234375"/><stop stop-opacity="1" stop-color="rgb(7.569885%, 17.892456%, 49.458313%)" offset="0.242188"/><stop stop-opacity="1" stop-color="rgb(7.572937%, 17.796326%, 49.151611%)" offset="0.25"/><stop stop-opacity="1" stop-color="rgb(7.574463%, 17.701721%, 48.84491%)" offset="0.257812"/><stop stop-opacity="1" stop-color="rgb(7.577515%, 17.605591%, 48.539734%)" offset="0.265625"/><stop stop-opacity="1" stop-color="rgb(7.579041%, 17.510986%, 48.233032%)" offset="0.273438"/><stop stop-opacity="1" stop-color="rgb(7.582092%, 17.414856%, 47.926331%)" offset="0.28125"/><stop stop-opacity="1" stop-color="rgb(7.585144%, 17.320251%, 47.621155%)" offset="0.289062"/><stop stop-opacity="1" stop-color="rgb(7.58667%, 17.224121%, 47.314453%)" offset="0.296875"/><stop stop-opacity="1" stop-color="rgb(7.589722%, 17.129517%, 47.007751%)" offset="0.304688"/><stop stop-opacity="1" stop-color="rgb(7.591248%, 17.033386%, 46.702576%)" offset="0.3125"/><stop stop-opacity="1" stop-color="rgb(7.594299%, 16.938782%, 46.395874%)" offset="0.320312"/><stop stop-opacity="1" stop-color="rgb(7.595825%, 16.844177%, 46.089172%)" offset="0.328125"/><stop stop-opacity="1" stop-color="rgb(7.598877%, 16.748047%, 45.782471%)" offset="0.335938"/><stop stop-opacity="1" stop-color="rgb(7.600403%, 16.653442%, 45.477295%)" offset="0.34375"/><stop stop-opacity="1" stop-color="rgb(7.603455%, 16.557312%, 45.170593%)" offset="0.351562"/><stop stop-opacity="1" stop-color="rgb(7.60498%, 16.462708%, 44.863892%)" offset="0.359375"/><stop stop-opacity="1" stop-color="rgb(7.608032%, 16.366577%, 44.558716%)" offset="0.367187"/><stop stop-opacity="1" stop-color="rgb(7.609558%, 16.271973%, 44.252014%)" offset="0.375"/><stop stop-opacity="1" stop-color="rgb(7.61261%, 16.175842%, 43.945312%)" offset="0.382812"/><stop stop-opacity="1" stop-color="rgb(7.614136%, 16.081238%, 43.638611%)" offset="0.390625"/><stop stop-opacity="1" stop-color="rgb(7.617188%, 15.985107%, 43.333435%)" offset="0.398438"/><stop stop-opacity="1" stop-color="rgb(7.620239%, 15.890503%, 43.026733%)" offset="0.40625"/><stop stop-opacity="1" stop-color="rgb(7.621765%, 15.794373%, 42.720032%)" offset="0.414062"/><stop stop-opacity="1" stop-color="rgb(7.624817%, 15.699768%, 42.414856%)" offset="0.421875"/><stop stop-opacity="1" stop-color="rgb(7.626343%, 15.603638%, 42.108154%)" offset="0.429688"/><stop stop-opacity="1" stop-color="rgb(7.629395%, 15.509033%, 41.801453%)" offset="0.4375"/><stop stop-opacity="1" stop-color="rgb(7.63092%, 15.414429%, 41.496277%)" offset="0.445312"/><stop stop-opacity="1" stop-color="rgb(7.633972%, 15.318298%, 41.189575%)" offset="0.453125"/><stop stop-opacity="1" stop-color="rgb(7.635498%, 15.223694%, 40.882874%)" offset="0.460938"/><stop stop-opacity="1" stop-color="rgb(7.63855%, 15.127563%, 40.576172%)" offset="0.46875"/><stop stop-opacity="1" stop-color="rgb(7.640076%, 15.032959%, 40.270996%)" offset="0.476562"/><stop stop-opacity="1" stop-color="rgb(7.643127%, 14.936829%, 39.964294%)" offset="0.484375"/><stop stop-opacity="1" stop-color="rgb(7.644653%, 14.842224%, 39.657593%)" offset="0.492188"/><stop stop-opacity="1" stop-color="rgb(7.647705%, 14.746094%, 39.352417%)" offset="0.5"/><stop stop-opacity="1" stop-color="rgb(7.650757%, 14.651489%, 39.045715%)" offset="0.507812"/><stop stop-opacity="1" stop-color="rgb(7.652283%, 14.555359%, 38.739014%)" offset="0.515625"/><stop stop-opacity="1" stop-color="rgb(7.655334%, 14.460754%, 38.433838%)" offset="0.523438"/><stop stop-opacity="1" stop-color="rgb(7.65686%, 14.364624%, 38.127136%)" offset="0.53125"/><stop stop-opacity="1" stop-color="rgb(7.659912%, 14.27002%, 37.820435%)" offset="0.539063"/><stop stop-opacity="1" stop-color="rgb(7.661438%, 14.175415%, 37.513733%)" offset="0.546875"/><stop stop-opacity="1" stop-color="rgb(7.66449%, 14.079285%, 37.208557%)" offset="0.554688"/><stop stop-opacity="1" stop-color="rgb(7.666016%, 13.98468%, 36.901855%)" offset="0.5625"/><stop stop-opacity="1" stop-color="rgb(7.669067%, 13.88855%, 36.595154%)" offset="0.570312"/><stop stop-opacity="1" stop-color="rgb(7.670593%, 13.793945%, 36.289978%)" offset="0.578125"/><stop stop-opacity="1" stop-color="rgb(7.673645%, 13.697815%, 35.983276%)" offset="0.585937"/><stop stop-opacity="1" stop-color="rgb(7.675171%, 13.60321%, 35.676575%)" offset="0.59375"/><stop stop-opacity="1" stop-color="rgb(7.678223%, 13.50708%, 35.369873%)" offset="0.601563"/><stop stop-opacity="1" stop-color="rgb(7.681274%, 13.412476%, 35.064697%)" offset="0.609375"/><stop stop-opacity="1" stop-color="rgb(7.6828%, 13.316345%, 34.757996%)" offset="0.617188"/><stop stop-opacity="1" stop-color="rgb(7.685852%, 13.221741%, 34.451294%)" offset="0.625"/><stop stop-opacity="1" stop-color="rgb(7.687378%, 13.12561%, 34.146118%)" offset="0.632812"/><stop stop-opacity="1" stop-color="rgb(7.69043%, 13.031006%, 33.839417%)" offset="0.640625"/><stop stop-opacity="1" stop-color="rgb(7.691956%, 12.934875%, 33.532715%)" offset="0.648437"/><stop stop-opacity="1" stop-color="rgb(7.695007%, 12.840271%, 33.227539%)" offset="0.65625"/><stop stop-opacity="1" stop-color="rgb(7.696533%, 12.745667%, 32.920837%)" offset="0.664062"/><stop stop-opacity="1" stop-color="rgb(7.699585%, 12.649536%, 32.614136%)" offset="0.671875"/><stop stop-opacity="1" stop-color="rgb(7.701111%, 12.554932%, 32.307434%)" offset="0.679687"/><stop stop-opacity="1" stop-color="rgb(7.704163%, 12.458801%, 32.002258%)" offset="0.6875"/><stop stop-opacity="1" stop-color="rgb(7.705688%, 12.364197%, 31.695557%)" offset="0.695312"/><stop stop-opacity="1" stop-color="rgb(7.70874%, 12.268066%, 31.388855%)" offset="0.703125"/><stop stop-opacity="1" stop-color="rgb(7.710266%, 12.173462%, 31.083679%)" offset="0.710938"/><stop stop-opacity="1" stop-color="rgb(7.713318%, 12.077332%, 30.776978%)" offset="0.71875"/><stop stop-opacity="1" stop-color="rgb(7.71637%, 11.982727%, 30.470276%)" offset="0.726562"/><stop stop-opacity="1" stop-color="rgb(7.717896%, 11.886597%, 30.163574%)" offset="0.734375"/><stop stop-opacity="1" stop-color="rgb(7.720947%, 11.791992%, 29.858398%)" offset="0.742187"/><stop stop-opacity="1" stop-color="rgb(7.722473%, 11.695862%, 29.551697%)" offset="0.75"/><stop stop-opacity="1" stop-color="rgb(7.725525%, 11.601257%, 29.244995%)" offset="0.757812"/><stop stop-opacity="1" stop-color="rgb(7.727051%, 11.506653%, 28.939819%)" offset="0.765625"/><stop stop-opacity="1" stop-color="rgb(7.730103%, 11.410522%, 28.633118%)" offset="0.773438"/><stop stop-opacity="1" stop-color="rgb(7.731628%, 11.315918%, 28.326416%)" offset="0.78125"/><stop stop-opacity="1" stop-color="rgb(7.73468%, 11.219788%, 28.02124%)" offset="0.789062"/><stop stop-opacity="1" stop-color="rgb(7.736206%, 11.125183%, 27.714539%)" offset="0.796875"/><stop stop-opacity="1" stop-color="rgb(7.739258%, 11.029053%, 27.407837%)" offset="0.804688"/><stop stop-opacity="1" stop-color="rgb(7.740784%, 10.934448%, 27.101135%)" offset="0.8125"/><stop stop-opacity="1" stop-color="rgb(7.743835%, 10.838318%, 26.795959%)" offset="0.820312"/><stop stop-opacity="1" stop-color="rgb(7.746887%, 10.743713%, 26.489258%)" offset="0.828125"/><stop stop-opacity="1" stop-color="rgb(7.748413%, 10.647583%, 26.182556%)" offset="0.835937"/><stop stop-opacity="1" stop-color="rgb(7.751465%, 10.552979%, 25.87738%)" offset="0.84375"/><stop stop-opacity="1" stop-color="rgb(7.752991%, 10.456848%, 25.570679%)" offset="0.851563"/><stop stop-opacity="1" stop-color="rgb(7.756042%, 10.362244%, 25.263977%)" offset="0.859375"/><stop stop-opacity="1" stop-color="rgb(7.757568%, 10.266113%, 24.958801%)" offset="0.867188"/><stop stop-opacity="1" stop-color="rgb(7.76062%, 10.171509%, 24.6521%)" offset="0.875"/><stop stop-opacity="1" stop-color="rgb(7.762146%, 10.076904%, 24.345398%)" offset="0.882812"/><stop stop-opacity="1" stop-color="rgb(7.765198%, 9.980774%, 24.038696%)" offset="0.890625"/><stop stop-opacity="1" stop-color="rgb(7.766724%, 9.886169%, 23.733521%)" offset="0.898437"/><stop stop-opacity="1" stop-color="rgb(7.769775%, 9.790039%, 23.426819%)" offset="0.90625"/><stop stop-opacity="1" stop-color="rgb(7.771301%, 9.695435%, 23.120117%)" offset="0.914062"/><stop stop-opacity="1" stop-color="rgb(7.774353%, 9.599304%, 22.814941%)" offset="0.921875"/><stop stop-opacity="1" stop-color="rgb(7.775879%, 9.5047%, 22.50824%)" offset="0.929688"/><stop stop-opacity="1" stop-color="rgb(7.778931%, 9.408569%, 22.201538%)" offset="0.9375"/><stop stop-opacity="1" stop-color="rgb(7.781982%, 9.313965%, 21.894836%)" offset="0.945312"/><stop stop-opacity="1" stop-color="rgb(7.783508%, 9.217834%, 21.589661%)" offset="0.953125"/><stop stop-opacity="1" stop-color="rgb(7.78656%, 9.12323%, 21.282959%)" offset="0.960938"/><stop stop-opacity="1" stop-color="rgb(7.788086%, 9.0271%, 20.976257%)" offset="0.96875"/><stop stop-opacity="1" stop-color="rgb(7.791138%, 8.932495%, 20.671082%)" offset="0.976562"/><stop stop-opacity="1" stop-color="rgb(7.792664%, 8.837891%, 20.36438%)" offset="0.984375"/><stop stop-opacity="1" stop-color="rgb(7.795715%, 8.74176%, 20.057678%)" offset="0.992187"/><stop stop-opacity="1" stop-color="rgb(7.797241%, 8.647156%, 19.752502%)" offset="1"/></linearGradient></defs><g clip-path="url(#6a6b28193b)"><g clip-path="url(#c9ed2f26a2)"><path fill="url(#e139b86bd9)" d="M 0 0 L 0 155.230469 L 149.394531 155.230469 L 149.394531 0 Z M 0 0 " fill-rule="nonzero"/></g></g><path fill="#f5f5f5" d="M 63.25 75.550781 L 72.550781 75.550781 C 73.183594 75.550781 73.8125 75.582031 74.441406 75.644531 C 75.070312 75.703125 75.691406 75.796875 76.3125 75.921875 C 76.933594 76.042969 77.542969 76.199219 78.148438 76.378906 C 78.753906 76.5625 79.347656 76.777344 79.929688 77.019531 C 80.515625 77.261719 81.085938 77.53125 81.640625 77.828125 C 82.199219 78.125 82.742188 78.449219 83.265625 78.800781 C 83.789062 79.152344 84.296875 79.527344 84.785156 79.929688 C 85.273438 80.328125 85.742188 80.753906 86.1875 81.199219 C 86.636719 81.644531 87.058594 82.113281 87.460938 82.601562 C 87.859375 83.089844 88.234375 83.597656 88.585938 84.121094 C 88.9375 84.648438 89.261719 85.1875 89.558594 85.746094 C 89.859375 86.300781 90.128906 86.875 90.371094 87.457031 C 90.609375 88.039062 90.824219 88.632812 91.007812 89.238281 C 91.191406 89.84375 91.34375 90.457031 91.46875 91.074219 C 91.589844 91.695312 91.683594 92.320312 91.746094 92.945312 C 91.808594 93.574219 91.835938 94.207031 91.835938 94.835938 L 61.832031 94.835938 L 61.835938 99.125 L 96.125 99.125 L 96.125 94.835938 C 96.117188 92.558594 95.789062 90.324219 95.144531 88.136719 C 94.5 85.949219 93.558594 83.898438 92.328125 81.980469 L 104.695312 81.980469 C 105.703125 81.980469 106.707031 82.050781 107.703125 82.191406 C 108.703125 82.332031 109.6875 82.542969 110.652344 82.824219 C 111.621094 83.101562 112.566406 83.449219 113.484375 83.863281 C 114.40625 84.273438 115.289062 84.75 116.140625 85.289062 C 116.996094 85.828125 117.804688 86.421875 118.574219 87.074219 C 119.339844 87.726562 120.058594 88.429688 120.730469 89.183594 C 121.398438 89.9375 122.011719 90.734375 122.566406 91.574219 C 123.125 92.414062 123.617188 93.289062 124.050781 94.199219 C 113.914062 107.574219 97.503906 116.269531 78.980469 116.269531 C 67.144531 116.269531 57.121094 113.738281 48.976562 109.304688 L 48.976562 69.425781 C 51.582031 69.796875 54.097656 70.503906 56.519531 71.542969 C 58.9375 72.582031 61.183594 73.917969 63.25 75.550781 Z M 44.691406 107.695312 C 44.691406 107.976562 44.664062 108.257812 44.609375 108.53125 C 44.554688 108.808594 44.472656 109.078125 44.363281 109.335938 C 44.257812 109.597656 44.125 109.84375 43.96875 110.078125 C 43.8125 110.3125 43.632812 110.527344 43.433594 110.726562 C 43.234375 110.925781 43.019531 111.105469 42.785156 111.261719 C 42.550781 111.417969 42.304688 111.546875 42.042969 111.65625 C 41.785156 111.765625 41.515625 111.84375 41.242188 111.898438 C 40.964844 111.953125 40.683594 111.980469 40.402344 111.980469 L 31.832031 111.980469 C 31.550781 111.980469 31.273438 111.953125 30.996094 111.898438 C 30.71875 111.84375 30.453125 111.765625 30.191406 111.65625 C 29.929688 111.546875 29.683594 111.417969 29.449219 111.261719 C 29.214844 111.105469 29 110.925781 28.800781 110.726562 C 28.601562 110.527344 28.425781 110.3125 28.269531 110.078125 C 28.113281 109.84375 27.980469 109.597656 27.871094 109.335938 C 27.765625 109.078125 27.683594 108.808594 27.628906 108.53125 C 27.574219 108.257812 27.546875 107.976562 27.546875 107.695312 L 27.546875 69.121094 C 27.546875 68.839844 27.574219 68.5625 27.628906 68.285156 C 27.683594 68.007812 27.765625 67.742188 27.871094 67.480469 C 27.980469 67.21875 28.113281 66.972656 28.269531 66.738281 C 28.425781 66.503906 28.601562 66.289062 28.800781 66.089844 C 29 65.890625 29.214844 65.714844 29.449219 65.558594 C 29.683594 65.402344 29.929688 65.269531 30.191406 65.160156 C 30.453125 65.054688 30.71875 64.972656 30.996094 64.917969 C 31.273438 64.863281 31.550781 64.835938 31.832031 64.835938 L 40.402344 64.835938 C 40.683594 64.835938 40.964844 64.863281 41.242188 64.917969 C 41.515625 64.972656 41.785156 65.054688 42.042969 65.160156 C 42.304688 65.269531 42.550781 65.402344 42.785156 65.558594 C 43.019531 65.714844 43.234375 65.890625 43.433594 66.089844 C 43.632812 66.289062 43.8125 66.503906 43.96875 66.738281 C 44.125 66.972656 44.257812 67.21875 44.363281 67.480469 C 44.472656 67.742188 44.554688 68.007812 44.609375 68.285156 C 44.664062 68.5625 44.691406 68.839844 44.691406 69.121094 Z M 100.410156 47.691406 C 101.253906 47.691406 102.089844 47.773438 102.917969 47.9375 C 103.746094 48.101562 104.550781 48.347656 105.332031 48.667969 C 106.109375 48.992188 106.851562 49.386719 107.554688 49.855469 C 108.253906 50.328125 108.90625 50.859375 109.503906 51.457031 C 110.097656 52.054688 110.632812 52.703125 111.101562 53.40625 C 111.570312 54.105469 111.964844 54.847656 112.289062 55.628906 C 112.613281 56.40625 112.855469 57.210938 113.019531 58.039062 C 113.1875 58.867188 113.269531 59.703125 113.269531 60.546875 C 113.269531 61.394531 113.1875 62.230469 113.019531 63.058594 C 112.855469 63.886719 112.613281 64.6875 112.289062 65.46875 C 111.964844 66.25 111.570312 66.992188 111.101562 67.691406 C 110.632812 68.394531 110.097656 69.042969 109.503906 69.640625 C 108.90625 70.238281 108.253906 70.769531 107.554688 71.238281 C 106.851562 71.710938 106.109375 72.105469 105.332031 72.429688 C 104.550781 72.75 103.746094 72.996094 102.917969 73.160156 C 102.089844 73.324219 101.253906 73.40625 100.410156 73.40625 C 99.566406 73.40625 98.730469 73.324219 97.902344 73.160156 C 97.074219 72.996094 96.269531 72.75 95.488281 72.429688 C 94.710938 72.105469 93.96875 71.710938 93.265625 71.238281 C 92.5625 70.769531 91.914062 70.238281 91.316406 69.640625 C 90.71875 69.042969 90.1875 68.394531 89.71875 67.691406 C 89.25 66.992188 88.851562 66.25 88.53125 65.46875 C 88.207031 64.6875 87.964844 63.886719 87.796875 63.058594 C 87.632812 62.230469 87.550781 61.394531 87.550781 60.546875 C 87.550781 59.703125 87.632812 58.867188 87.796875 58.039062 C 87.964844 57.210938 88.207031 56.40625 88.53125 55.628906 C 88.851562 54.847656 89.25 54.105469 89.71875 53.40625 C 90.1875 52.703125 90.71875 52.054688 91.316406 51.457031 C 91.914062 50.859375 92.5625 50.328125 93.265625 49.855469 C 93.96875 49.386719 94.710938 48.992188 95.488281 48.667969 C 96.269531 48.347656 97.074219 48.101562 97.902344 47.9375 C 98.730469 47.773438 99.566406 47.691406 100.410156 47.691406 Z M 70.40625 34.832031 C 71.25 34.832031 72.085938 34.914062 72.914062 35.078125 C 73.742188 35.242188 74.546875 35.488281 75.328125 35.8125 C 76.109375 36.132812 76.847656 36.53125 77.550781 37 C 78.253906 37.46875 78.902344 38 79.5 38.597656 C 80.097656 39.195312 80.628906 39.84375 81.097656 40.546875 C 81.566406 41.25 81.964844 41.988281 82.285156 42.769531 C 82.609375 43.550781 82.855469 44.355469 83.019531 45.183594 C 83.183594 46.011719 83.265625 46.847656 83.265625 47.691406 C 83.265625 48.535156 83.183594 49.371094 83.019531 50.199219 C 82.855469 51.027344 82.609375 51.832031 82.285156 52.609375 C 81.964844 53.390625 81.566406 54.132812 81.097656 54.835938 C 80.628906 55.535156 80.097656 56.183594 79.5 56.78125 C 78.902344 57.378906 78.253906 57.914062 77.550781 58.382812 C 76.847656 58.851562 76.109375 59.246094 75.328125 59.570312 C 74.546875 59.894531 73.742188 60.136719 72.914062 60.300781 C 72.085938 60.464844 71.25 60.546875 70.40625 60.546875 C 69.5625 60.546875 68.726562 60.464844 67.898438 60.300781 C 67.070312 60.136719 66.265625 59.894531 65.484375 59.570312 C 64.707031 59.246094 63.964844 58.851562 63.261719 58.382812 C 62.5625 57.914062 61.910156 57.378906 61.316406 56.78125 C 60.71875 56.183594 60.183594 55.535156 59.714844 54.835938 C 59.246094 54.132812 58.851562 53.390625 58.527344 52.609375 C 58.203125 51.832031 57.960938 51.027344 57.796875 50.199219 C 57.632812 49.371094 57.546875 48.535156 57.546875 47.691406 C 57.546875 46.847656 57.632812 46.011719 57.796875 45.183594 C 57.960938 44.355469 58.203125 43.550781 58.527344 42.769531 C 58.851562 41.988281 59.246094 41.25 59.714844 40.546875 C 60.183594 39.84375 60.71875 39.195312 61.316406 38.597656 C 61.910156 38 62.5625 37.46875 63.261719 37 C 63.964844 36.53125 64.707031 36.132812 65.484375 35.8125 C 66.265625 35.488281 67.070312 35.242188 67.898438 35.078125 C 68.726562 34.914062 69.5625 34.832031 70.40625 34.832031 Z M 70.40625 34.832031 " fill-opacity="1" fill-rule="nonzero"/></svg>